<svg width="56" height="56" viewBox="0 0 56 56" fill="none" xmlns="http://www.w3.org/2000/svg">
<path fill-rule="evenodd" clip-rule="evenodd" d="M4.66602 28C4.66602 15.1133 15.1127 4.66663 27.9993 4.66663C40.886 4.66663 51.3327 15.1133 51.3327 28C51.3327 40.8866 40.886 51.3333 27.9993 51.3333C15.1127 51.3333 4.66602 40.8866 4.66602 28ZM20.9997 18.6666C19.0667 18.6666 17.4997 20.2336 17.4997 22.1666V22.19C17.4997 24.123 19.0667 25.69 20.9997 25.69H21.023C22.956 25.69 24.523 24.123 24.523 22.19V22.1666C24.523 20.2336 22.956 18.6666 21.023 18.6666H20.9997ZM34.9997 18.6666C33.0667 18.6666 31.4997 20.2336 31.4997 22.1666V22.19C31.4997 24.123 33.0667 25.69 34.9997 25.69H35.023C36.956 25.69 38.523 24.123 38.523 22.19V22.1666C38.523 20.2336 36.956 18.6666 35.023 18.6666H34.9997ZM18.7467 30.6469C19.8622 30.0016 21.2895 30.3828 21.9348 31.4983C23.1486 33.5967 25.4117 35 27.9997 35C30.5878 35 32.8508 33.5967 34.0647 31.4983C34.71 30.3828 36.1373 30.0016 37.2528 30.6469C38.3683 31.2922 38.7494 32.7195 38.1042 33.835C36.0905 37.3161 32.321 39.6666 27.9997 39.6666C23.6785 39.6666 19.909 37.3161 17.8953 33.835C17.25 32.7195 17.6312 31.2922 18.7467 30.6469Z" fill="#AAAFC4"/>
</svg>
