<svg width="213" height="213" viewBox="0 0 213 213" fill="none" xmlns="http://www.w3.org/2000/svg">
<path d="M197.856 113.331C197.852 113.331 197.85 113.335 197.846 113.334C193.992 112.959 188.011 112.272 181.656 111.476L194.168 81.7659C194.633 80.6622 193.471 79.5391 192.406 80.0813C187.681 82.463 182.956 87.8074 178.29 88.4658C158.933 91.1323 139.939 89.4632 121.361 87.2102C119.958 82.863 117.757 78.7302 114.865 75.0935C110.374 69.4545 106.902 69.1453 101.193 71.4808C91.3971 75.5027 82.2601 81.4354 78.4883 84.8424C77.3462 85.8702 76.0528 87.035 74.7404 87.191C74.3509 87.2282 73.9278 87.179 73.4867 87.0871C74.1611 86.4168 74.8369 85.7168 75.5384 84.936L75.5403 84.9341C76.5293 83.822 76.3262 82.0756 75.1129 81.2184C67.4753 75.7062 60.5808 67.0852 54.6185 55.5975C52.52 51.5403 52.3273 49.6981 45.8254 49.7714C40.0124 49.7739 60.6437 49.7649 17.4967 49.7836C14.3959 49.8461 13.0793 51.6297 13.0793 53.7831C13.0594 56.7826 14.304 59.9574 15.1745 62.665C16.0925 65.559 17.1935 68.6542 19.5654 74.1886C24.3477 85.6111 26.7114 90.9096 32.6018 101.329C32.6793 101.467 32.8212 101.558 32.9781 101.573C34.2763 101.692 35.4407 101.771 36.4415 101.762C37.1901 103.949 38.5591 107.301 40.4796 108.532C44.0668 113.99 51.6162 116.36 58.5163 118.797C54.9148 122.434 52.1613 125.239 48.9474 128.517C48.4258 129.037 48.3215 129.818 48.7125 130.477C48.21 130.802 47.741 131.107 47.3552 131.361C46.2747 132.08 46.4638 133.718 47.6843 134.19C87.1102 149.216 118.604 167.88 156.726 175.392C156.736 175.395 156.74 175.406 156.75 175.408C157.679 175.59 158.586 175.193 159.097 174.464L199.513 116.949C200.456 115.603 199.705 113.511 197.856 113.331ZM181.853 90.6539C184.002 89.918 185.726 90.3053 185.726 91.5059C185.726 92.7064 184.002 94.2749 181.853 94.9913C179.704 95.7078 177.98 95.3205 177.98 94.1199C177.98 92.9194 179.704 91.3703 181.853 90.6539ZM179.529 99.1544C181.679 98.4186 183.402 98.8059 183.402 100.006C183.402 101.207 181.679 102.775 179.529 103.492C177.38 104.208 175.656 103.821 175.656 102.621C175.656 101.42 177.38 99.8709 179.529 99.1544ZM176.179 107.655C178.309 106.939 180.052 107.326 180.052 108.507C180.052 109.708 178.309 111.276 176.179 111.993C174.03 112.709 172.287 112.322 172.287 111.121C172.287 109.921 174.03 108.372 176.179 107.655ZM104.037 141.594C93.2984 143.239 87.8496 144.073 84.7721 144.528C83.7113 144.68 83.0649 143.444 83.7377 142.649L87.4828 138.24C93.7965 139.534 99.3329 140.666 104.037 141.594ZM130.268 90.8281C130.551 90.2622 131.409 90.6961 131.12 91.2735L127.77 97.6829L148.412 100.374L151.897 93.5584C152.185 92.9826 153.028 93.4452 152.749 94.0037L149.419 100.51L154.027 101.11C154.629 101.196 154.57 102.078 153.969 102.078C153.079 101.961 148.717 101.389 148.954 101.42L143.61 111.896L162.644 113.851C163.242 113.894 163.212 114.8 162.586 114.8C162.391 114.8 163.012 114.846 143.126 112.825L136.038 126.69L143.881 127.387C144.468 127.471 144.477 128.355 143.784 128.355L135.554 127.619L128.099 142.2C127.852 142.758 126.96 142.378 127.247 141.754L134.528 127.542L113.151 125.644C107.534 136.152 107.717 136.584 107.129 136.584C106.804 136.584 106.539 136.194 106.703 135.868L112.105 125.547L100.861 124.531C100.366 124.274 100.662 124.444 98.8424 123.384L104.95 123.93C107.772 124.63 115.937 126.463 118.527 125.143L134.993 126.612L142.1 112.728L126.761 111.17C126.764 110.976 126.815 110.832 126.723 110.183L142.564 111.799L147.947 101.285L127.286 98.6123L123.56 105.753C123.047 105.427 122.903 105.362 122.708 105.252L126.26 98.4767L123.233 98.0754C123.238 97.8802 123.277 97.5352 123.224 97.0882L126.744 97.5473L130.268 90.8281ZM117.711 114.818C117.994 114.84 117.956 114.855 118.77 114.902L117.713 116.909C117.435 116.733 117.14 116.573 116.861 116.443L117.711 114.818ZM101.32 95.2237C100.688 95.1264 100.826 94.1655 101.455 94.2555L108.116 95.1269L109.153 93.6024C109.234 93.695 109.102 93.5483 109.829 94.3589L109.2 95.2817L110.819 95.4957C111.281 96.0175 110.935 95.6699 111.84 96.5955L108.581 96.1725L105.485 100.754C105.224 100.7 104.582 100.58 104.461 100.557L107.516 96.0369L101.32 95.2237ZM20.4561 73.8104C17.6168 67.1856 17.0611 65.2371 15.687 61.1333C14.0379 56.2014 12.3226 50.8592 17.5156 50.7518C18.8353 50.7513 10.4114 50.7549 45.8368 50.7395C52.0797 50.6682 51.9446 52.5396 53.7581 56.0418C59.7903 67.6666 66.7851 76.402 74.5494 82.006C75.3051 82.5398 75.4148 83.6178 74.818 84.2893C63.906 96.447 48.9776 102.007 33.3204 100.631C27.5453 90.4038 25.1911 85.1176 20.4561 73.8104ZM41.2341 107.916C40.9537 107.475 39.4954 107.484 37.4673 101.791C49.6613 102.09 62.7905 97.4475 72.6717 87.8954C77.7513 89.4929 77.0214 84.7411 93.6824 76.0371C96.1274 74.7503 98.7767 73.5192 101.56 72.3771C106.817 70.2253 109.838 70.3399 114.109 75.6967C117.941 80.5173 120.587 86.2496 121.74 92.7628L121.727 92.7202C121.199 90.9373 120.975 90.3683 119.402 90.4738C118.325 90.5508 115.012 91.8325 115.334 92.8668C115.673 93.9144 116.066 94.9592 116.501 95.9727C117.703 98.7695 121.701 98.8319 122.194 96.2637C122.21 96.4609 122.319 97.2377 122.27 97.997C122.188 100.769 120.464 101.814 117.492 99.9249C114.314 97.9526 112.57 96.0612 110.48 93.6317C109.442 92.4143 108.989 92.2343 107.645 90.2041C107.854 90.0741 107.947 89.8151 107.836 89.5907C107.265 88.4268 106.552 87.3366 105.715 86.3486C105.167 85.7047 104.712 85.4093 103.78 85.4664C101.553 85.5657 99.6011 86.6786 97.6307 87.9086C95.1914 89.436 92.1658 91.3378 91.2692 94.3211C90.5471 96.0012 90.9239 97.5768 92.3454 98.6012C93.3949 99.3453 94.7508 99.5854 95.9497 99.7982C97.1478 100.008 106.293 101.937 109.794 102.629C115.461 103.871 126.014 105.227 125.797 111.085C125.742 111.826 125.447 112.491 124.942 113.012C123.741 114.262 121.504 114.115 119.697 113.998L119.167 113.972C119.127 113.959 118.989 113.947 118.95 113.944C111.481 113.536 104.591 111.808 93.4696 109.87C93.6214 109.49 93.7393 109.1 93.9244 108.732C94.2098 108.159 93.347 107.724 93.0583 108.297C92.6631 109.086 92.3341 109.908 92.0826 110.738C91.5207 112.565 93.1638 112.24 92.9411 111.464C92.8867 111.27 93.0488 110.957 93.1061 110.779C96.6377 111.416 98.0586 111.666 101.581 112.333C101.651 112.416 101.738 112.487 101.853 112.507C107.211 113.459 111.467 114.728 116.431 117.311C118.138 118.111 119.813 119.386 119.85 121.286C119.909 122.793 118.817 124.328 117.303 124.572C116.522 124.75 115.65 124.694 114.812 124.618C106.003 123.963 100.914 121.17 94.5182 120.958C94.5182 120.958 94.5087 120.958 94.5031 120.958C94.4964 120.958 94.492 120.964 94.4856 120.964C92.8383 120.332 91.1544 119.768 89.456 119.313C89.4031 119.3 89.3558 119.33 89.3033 119.335C89.6087 118.808 89.9477 118.302 90.3448 117.836C90.7589 117.352 90.0284 116.719 89.6073 117.208C88.7841 118.174 87.5083 120.192 87.5083 121.349C87.5083 121.989 88.4765 121.989 88.4765 121.349C88.4765 120.851 88.8493 120.24 88.9422 120.046C89.005 120.138 89.0901 120.218 89.2064 120.249C90.9936 120.728 92.7704 121.321 94.4974 121.998C102.136 126.44 102.395 126.288 103.009 127.192C103.502 127.927 103.983 129.057 103.47 130.273C101.785 134.171 94.2344 131.837 90.4015 129.936C82.7223 126.115 74.5078 123.3 66.5619 120.579C52.6399 115.673 44.8679 113.549 41.2341 107.916ZM121.293 95.4196C121.322 96.2334 121.15 96.832 120.347 97.0629C119.33 97.3664 117.978 96.9532 117.39 95.5908C116.998 94.6765 116.641 93.7366 116.329 92.7921C116.894 92.1116 119.926 91.0131 120.253 91.5535C120.382 91.7681 120.487 91.9417 120.905 93.3499C121.276 94.548 121.258 95.1176 121.293 95.4196ZM48.0303 133.287C47.5381 133.095 47.4709 132.448 47.8885 132.168C48.3317 131.878 48.8761 131.522 49.4722 131.14C50.7052 131.658 53.3956 131.264 86.4011 138.019L83.0002 142.023C81.743 143.505 82.9875 145.771 84.9101 145.486C87.8535 145.051 95.6224 143.867 106.85 142.142C125.922 145.832 144.393 148.637 163.773 148.396C165.532 148.374 167.103 147.306 167.779 145.677C167.88 145.431 167.763 145.15 167.518 145.047L181.265 112.403C187.737 113.215 193.85 113.919 197.766 114.3C198.809 114.402 199.286 115.592 198.711 116.401L158.297 173.911C157.995 174.343 157.469 174.563 156.947 174.449C118.966 166.97 87.4174 148.294 48.0303 133.287Z" fill="#002036"/>
<path d="M42.8247 98.8981L46.9244 97.4552C47.5295 97.2414 47.2059 96.3288 46.6029 96.5419L42.5033 97.9847C41.8989 98.1983 42.2237 99.1127 42.8247 98.8981ZM52.0206 94.9298L49.6304 96.1429C49.059 96.4331 49.5003 97.2973 50.0691 97.0052L52.4593 95.7921C53.0275 95.5035 52.5949 94.6382 52.0206 94.9298ZM59.6998 92.3439L61.8177 90.9011C62.3485 90.5405 61.801 89.7395 61.2731 90.1012L59.1552 91.544C58.6254 91.904 59.17 92.7052 59.6998 92.3439ZM67.2808 88.1639L69.2379 85.9023C69.6514 85.4214 68.9347 84.7858 68.5042 85.2688L66.5471 87.5304C66.1306 88.0149 66.8588 88.6479 67.2808 88.1639ZM71.7775 83.8071L72.6531 82.4768C73.002 81.9488 72.2078 81.4065 71.8437 81.9435L70.9682 83.2757C70.6147 83.8105 71.4276 84.3428 71.7775 83.8071ZM109.109 122.15C110.289 122.441 111.501 122.679 112.708 122.858C114.762 123.168 116.495 121.932 117.008 120.229C117.406 118.901 116.795 117.934 115.576 117.237C113.584 116.101 110.625 115.803 110.822 115.839C109.996 115.839 109.612 116.547 109.348 117.036C108.788 118.052 108.674 119.17 108.574 120.155C108.517 120.712 108.457 121.29 108.801 121.914C108.865 122.032 108.977 122.118 109.109 122.15ZM110.824 116.808C111.021 116.838 111.065 116.74 112.536 117.137C112.761 117.205 114.023 117.465 115.096 118.076C115.89 118.531 116.35 119.047 116.081 119.951C115.733 121.108 114.517 122.153 112.852 121.901C111.749 121.737 110.647 121.524 109.567 121.266C109.274 120.431 110.012 116.808 110.824 116.808ZM93.8093 130.169C94.7094 130.609 95.6474 131.012 96.5966 131.368C98.2472 131.99 99.8945 131.274 100.623 129.957C101.582 128.219 99.9309 126.89 98.1643 126.004C96.4342 125.169 95.9165 124.736 94.8626 125.956C94.1771 126.744 92.8817 129.72 93.8093 130.169ZM95.6417 126.535C96.1715 125.921 96.1298 126.097 97.7312 126.87C98.3893 127.2 98.9093 127.541 99.3234 127.912C99.8563 128.388 100.129 128.851 99.7754 129.489C99.3121 130.328 98.1851 130.93 96.937 130.462C96.0936 130.145 95.2578 129.789 94.4504 129.403C94.4271 129.039 94.9347 127.348 95.6417 126.535ZM115.353 112.219C116.616 112.439 117.912 112.602 119.203 112.704C122.595 112.987 124.574 109.394 123.087 107.547C122.128 106.356 119.847 105.971 118.785 105.724C116.626 105.294 115.98 105.251 115.253 106.841C114.739 107.95 114.701 109.135 114.667 110.18C114.648 110.77 114.627 111.379 115.03 112.004C115.102 112.118 115.221 112.196 115.353 112.219ZM116.777 106.45C117.653 106.4 121.431 107.042 122.333 108.154C123.238 109.281 121.902 111.944 119.279 111.74C118.095 111.645 116.908 111.5 115.748 111.305C115.358 110.426 115.88 106.501 116.777 106.45ZM38.2136 92.687C36.2772 90.7507 32.2497 92.1835 32.7144 95.1269C32.9273 96.366 34.0118 97.3924 35.2703 97.5667C37.6522 97.8958 40.1887 94.6428 38.2136 92.687ZM36.9551 94.2749C36.6646 94.0618 36.3354 93.8294 36.0257 93.7908C35.4756 93.726 35.0425 94.2451 35.1542 94.4684C35.6655 94.8404 35.0982 95.6224 34.5928 95.243C33.5159 94.5252 34.5572 92.6217 36.1418 92.842C36.7032 92.9 37.1681 93.2291 37.5168 93.5003C38.0403 93.8816 37.4671 94.6471 36.9551 94.2749ZM33.1406 79.7327C31.2042 77.8158 27.1764 79.2293 27.6605 82.1726C27.8543 83.4118 28.9386 84.4575 30.1972 84.6317C32.5789 84.9609 35.1157 81.7079 33.1406 79.7327ZM31.3202 81.185C30.9727 80.837 30.2713 81.3607 30.1972 81.8047C30.1972 81.9015 30.2166 81.9983 30.2554 82.0176C30.7362 82.4117 30.1566 83.189 29.6356 82.7729C28.2584 81.5794 30.602 79.1108 31.9979 80.5072C32.1918 80.6815 31.7883 81.653 31.3202 81.185ZM24.4047 125.219C22.9799 129.195 30.9408 135.77 41.259 129.046C41.7951 128.696 41.2642 127.885 40.7295 128.235C31.2696 134.401 24.2324 128.575 25.3161 125.546C25.5348 124.94 24.6149 124.622 24.4047 125.219ZM39.3699 138.261C39.9715 138.017 39.5857 137.116 39.0068 137.364C36.9967 138.181 35.0509 139.194 33.2223 140.372C32.8156 140.633 33.0074 141.263 33.4852 141.263C33.9788 141.263 35.1505 139.978 39.3699 138.261ZM47.3555 138.279C47.7935 137.816 47.0978 137.147 46.6521 137.611C44.5417 139.834 43.2445 141.71 42.4465 143.694C41.416 146.261 41.3687 148.974 42.3198 151.135C43.9919 154.949 50.8943 159.655 55.0877 157.488C55.661 157.192 55.2034 156.33 54.6453 156.628C52.378 157.799 49.5963 156.571 47.66 155.34C45.3511 153.873 43.9366 152.413 43.2048 150.746C42.3596 148.821 42.4106 146.382 43.3466 144.056C44.0955 142.189 45.3322 140.408 47.3555 138.279ZM75.4177 48.8788C77.9705 49.0802 80.5176 50.4152 82.5902 52.639C84.2353 54.4052 85.5968 56.7084 86.877 59.8871C87.1141 60.4799 88.0145 60.122 87.7733 59.526C86.4496 56.2338 85.0276 53.8351 83.2974 51.9791C81.0603 49.5775 78.2901 48.1338 75.4933 47.9144C74.8258 47.8792 74.7985 48.8305 75.4177 48.8788ZM90.5984 50.4568C90.8121 52.2674 91.1657 54.0724 91.6479 55.8234C91.7151 56.0694 91.9712 56.233 92.2436 56.1619C93.0938 55.9244 92.1411 55.2277 91.5591 50.3434C91.4856 49.6962 90.5223 49.8273 90.5984 50.4568ZM102.126 45.7748C102.971 45.632 103.792 46.1047 104.346 46.5293C104.853 46.9189 105.444 46.1514 104.936 45.7615C104.229 45.2179 103.132 44.6052 101.959 44.8217C97.686 45.5707 98.0016 54.6509 98.7618 58.8755C98.8739 59.5047 99.828 59.3349 99.7149 58.7034C99.0695 55.1213 98.6781 46.382 102.126 45.7748ZM165.561 65.6357L185.582 31.9508C186.221 30.8738 185.795 29.48 184.661 28.9469L172.319 23.1482C171.091 22.5697 169.644 23.2786 169.346 24.6024L160.582 63.5367C160.408 64.3102 160.805 65.111 161.523 65.4419L163.403 66.307C164.18 66.6664 165.116 66.3896 165.561 65.6357ZM163.808 65.4277L161.928 64.5626C161.622 64.4217 161.452 64.0794 161.527 63.7485L170.292 24.8142C170.451 24.0939 171.242 23.7113 171.907 24.0238L184.249 29.8225C184.873 30.1168 185.096 30.8759 184.75 31.4563L164.729 65.1412C164.54 65.4589 164.142 65.5828 163.808 65.4277ZM159.198 70.7286C155.673 70.3413 152.44 72.9361 152.052 76.4603C151.646 80.0619 154.26 83.2376 157.784 83.6249C161.386 84.0122 164.619 81.4948 165.026 77.8932C165.413 74.369 162.799 71.1159 159.198 70.7286ZM157.358 81.8241H157.281C155.826 81.8241 154.842 81.1128 154.434 79.5198C153.517 75.7671 156.597 72.2256 160.476 72.6844C161.097 72.7288 161.013 73.7204 160.36 73.6332C157.163 73.2498 154.602 76.2241 155.383 79.268C155.48 79.7134 155.712 80.2749 156.158 80.5847C156.794 81.0086 158.452 81.0213 159.72 80.0425C161.437 78.6978 160.849 76.7701 159.275 76.7701C158.036 76.7701 157.168 78.1613 157.629 78.7064C158.049 79.1727 157.341 79.8202 156.913 79.3454C156.312 78.6872 156.526 77.6996 156.952 77.0606C158.197 75.2812 160.73 75.452 161.541 77.2349C162.381 79.0841 160.471 81.7674 157.358 81.8241Z" fill="#002036"/>
<path d="M175.932 34.2237L169.821 49.1275C169.578 49.7147 170.47 50.0903 170.717 49.4943L176.829 34.5906C177.071 34.0043 176.18 33.625 175.932 34.2237ZM138.147 66.8271C138.448 67.3376 139.079 67.5277 139.61 67.2847L141.569 66.3817C142.059 66.1567 142.328 65.6131 142.208 65.0902L134.979 32.9728C134.823 32.2935 134.082 31.9486 133.478 32.2391L122.124 37.5736C121.551 37.8445 121.335 38.5511 121.659 39.0911L138.147 66.8271ZM122.537 38.4491L133.89 33.1147L134.034 33.1856C135.43 39.388 137.716 49.546 141.265 65.3048C141.282 65.3842 141.24 65.4674 141.165 65.5024C139.343 66.2781 139.13 66.5872 138.979 66.3335L122.491 38.5957L122.537 38.4491ZM144.287 80.8752C147.095 80.5654 149.167 78.0288 148.857 75.163C148.547 72.3746 145.972 70.3027 143.164 70.5931C140.298 70.9223 138.227 73.4976 138.536 76.3054C138.846 79.1713 141.421 81.185 144.287 80.8752ZM144.016 72.2777C144.651 72.1872 144.777 73.1372 144.152 73.2266C141.161 73.6343 140.66 77.2845 143.261 78.1062C144.361 78.4912 145.242 77.9184 145.526 77.0024C145.994 75.0662 143.597 74.5781 143.397 75.8794C143.338 76.1118 143.377 76.3247 143.474 76.4797C143.629 76.6927 143.571 77.0024 143.358 77.1574C142.481 77.6686 141.781 75.4523 143.261 74.4658C144.887 73.4499 147.025 75.0724 146.456 77.2542C145.67 80.0927 141.744 79.6324 140.763 76.9638C140.069 74.9201 141.516 72.6287 144.016 72.2777ZM161.447 154.513C154.689 155.23 147.936 154.741 141.358 153.058C140.734 152.902 140.501 153.838 141.119 153.996C147.67 155.671 154.555 156.22 161.549 155.475C161.816 155.447 162.103 154.462 161.447 154.513ZM147.25 177.181C144.468 179.966 141.885 182.986 139.571 186.156C139.272 186.566 139.726 187.105 140.183 186.872C145.718 184.025 151.45 181.392 157.217 179.045C158.908 178.354 159.283 178.61 160.175 179.685C160.426 179.907 160.784 180.933 165.352 183.808C171.482 187.625 171.162 187.535 171.426 187.535C171.799 187.535 172.035 187.128 171.842 186.802C170.229 184.109 168.973 181.22 168.102 178.208C173.381 178.969 178.754 178.615 183.959 178.276C184.457 178.244 184.585 177.562 184.13 177.353C181.775 176.266 179.51 174.972 177.375 173.5C181.028 173.43 184.684 172.397 187.817 170.527C188.181 170.31 188.108 169.767 187.707 169.647C184.271 168.628 180.841 167.461 177.511 166.179C176.908 165.951 176.568 166.853 177.163 167.083C180.164 168.238 183.245 169.3 186.336 170.246C183.133 171.914 179.461 172.711 175.853 172.503C175.393 172.456 175.141 173.078 175.535 173.374C177.594 174.9 179.784 176.26 182.07 177.428C177.25 177.73 172.315 177.93 167.514 177.137C167.177 177.072 166.873 177.397 166.967 177.74C167.699 180.48 168.739 183.124 170.066 185.625L165.867 182.988C161.49 180.236 161.149 179.268 160.92 179.066C159.75 177.654 158.935 177.301 156.852 178.149C151.701 180.243 146.58 182.566 141.601 185.065C143.555 182.54 145.678 180.124 147.934 177.865C148.387 177.413 147.703 176.728 147.25 177.181Z" fill="#002036"/>
<path d="M159.036 185.528L157.875 189.434C157.69 190.048 158.619 190.324 158.802 189.71L159.963 185.802C160.149 185.187 159.217 184.916 159.036 185.528ZM178.071 183.978C179.258 184.624 180.418 185.326 181.516 186.067C182.045 186.421 182.587 185.621 182.057 185.263C180.934 184.507 179.748 183.788 178.532 183.127C177.965 182.823 177.511 183.673 178.071 183.978ZM184.041 160.738C184.657 160.696 184.644 159.756 183.976 159.772C182.066 159.9 180.134 160.354 178.232 161.12C177.741 161.318 177.885 162.053 178.413 162.053C178.474 162.053 180.721 160.962 184.041 160.738ZM57.9104 77.078C54.1681 71.581 51.2579 65.5771 49.261 59.2338C49.0738 58.6241 48.1431 58.9125 48.3382 59.525C50.3635 65.9581 53.3153 72.0471 57.1086 77.6226C57.4706 78.1512 58.2687 77.6087 57.9104 77.078ZM49.036 69.4867L47.3455 63.0375C47.1744 62.4088 46.2505 62.6686 46.4075 63.2833L48.0981 69.7325C48.265 70.3517 49.1946 70.1077 49.036 69.4867Z" fill="#002036"/>
</svg>
