<svg width="18" height="19" viewBox="0 0 18 19" fill="none" xmlns="http://www.w3.org/2000/svg">
<path fill-rule="evenodd" clip-rule="evenodd" d="M1.5 9.49988C1.5 5.35774 4.85786 1.99988 9 1.99988C13.1421 1.99988 16.5 5.35774 16.5 9.49988C16.5 13.642 13.1421 16.9999 9 16.9999C4.85786 16.9999 1.5 13.642 1.5 9.49988ZM11.7803 8.53033C12.0732 8.23744 12.0732 7.76256 11.7803 7.46967C11.4874 7.17678 11.0126 7.17678 10.7197 7.46967L8.25 9.93934L7.28033 8.96967C6.98744 8.67678 6.51256 8.67678 6.21967 8.96967C5.92678 9.26256 5.92678 9.73744 6.21967 10.0303L7.71967 11.5303C8.01256 11.8232 8.48744 11.8232 8.78033 11.5303L11.7803 8.53033Z" fill="white"/>
</svg>
