<svg width="20" height="20" viewBox="0 0 20 20" fill="none" xmlns="http://www.w3.org/2000/svg">
<path d="M10 0C8.02219 0 6.08879 0.58649 4.4443 1.6853C2.79981 2.78412 1.51809 4.3459 0.761209 6.17317C0.00433284 8.00043 -0.193701 10.0111 0.192152 11.9509C0.578004 13.8907 1.53041 15.6725 2.92894 17.0711C4.32746 18.4696 6.10929 19.422 8.0491 19.8079C9.98891 20.1937 11.9996 19.9957 13.8268 19.2388C15.6541 18.4819 17.2159 17.2002 18.3147 15.5557C19.4135 13.9112 20 11.9778 20 10C19.9973 7.34867 18.9429 4.80671 17.0681 2.93193C15.1933 1.05715 12.6513 0.00271403 10 0ZM14.3736 10.8325H10.8325V14.3736C10.8325 14.5946 10.7447 14.8067 10.5884 14.963C10.432 15.1193 10.22 15.2071 9.99898 15.2071C9.77792 15.2071 9.56592 15.1193 9.4096 14.963C9.25329 14.8067 9.16548 14.5946 9.16548 14.3736V10.8325H5.62436C5.4033 10.8325 5.1913 10.7447 5.03499 10.5884C4.87867 10.432 4.79086 10.22 4.79086 9.99897C4.79086 9.77792 4.87867 9.56591 5.03499 9.4096C5.1913 9.25329 5.4033 9.16547 5.62436 9.16547H9.16548V5.62436C9.16548 5.4033 9.25329 5.1913 9.4096 5.03498C9.56592 4.87867 9.77792 4.79085 9.99898 4.79085C10.22 4.79085 10.432 4.87867 10.5884 5.03498C10.7447 5.1913 10.8325 5.4033 10.8325 5.62436V9.16547H14.3736C14.5947 9.16547 14.8067 9.25329 14.963 9.4096C15.1193 9.56591 15.2071 9.77792 15.2071 9.99897C15.2071 10.22 15.1193 10.432 14.963 10.5884C14.8067 10.7447 14.5947 10.8325 14.3736 10.8325Z" fill="white"/>
</svg>
