<svg width="14" height="14" viewBox="0 0 14 14" fill="none" xmlns="http://www.w3.org/2000/svg">
<g clip-path="url(#clip0_6_339)">
<path d="M7 0C5.61553 0 4.26216 0.410543 3.11101 1.17971C1.95987 1.94888 1.06266 3.04213 0.532846 4.32122C0.00303299 5.6003 -0.13559 7.00776 0.134506 8.36563C0.404603 9.7235 1.07129 10.9708 2.05026 11.9497C3.02922 12.9287 4.2765 13.5954 5.63437 13.8655C6.99224 14.1356 8.3997 13.997 9.67879 13.4672C10.9579 12.9373 12.0511 12.0401 12.8203 10.889C13.5895 9.73785 14 8.38447 14 7C13.9981 5.14407 13.26 3.36469 11.9477 2.05235C10.6353 0.740008 8.85594 0.00189982 7 0ZM10.0615 7.58274H7.58274V10.0615C7.58274 10.2163 7.52127 10.3647 7.41185 10.4741C7.30243 10.5835 7.15403 10.645 6.99929 10.645C6.84454 10.645 6.69614 10.5835 6.58672 10.4741C6.4773 10.3647 6.41583 10.2163 6.41583 10.0615V7.58274H3.93705C3.78231 7.58274 3.63391 7.52126 3.52449 7.41185C3.41507 7.30243 3.3536 7.15402 3.3536 6.99928C3.3536 6.84454 3.41507 6.69614 3.52449 6.58672C3.63391 6.4773 3.78231 6.41583 3.93705 6.41583H6.41583V3.93705C6.41583 3.78231 6.4773 3.63391 6.58672 3.52449C6.69614 3.41507 6.84454 3.3536 6.99929 3.3536C7.15403 3.3536 7.30243 3.41507 7.41185 3.52449C7.52127 3.63391 7.58274 3.78231 7.58274 3.93705V6.41583H10.0615C10.2163 6.41583 10.3647 6.4773 10.4741 6.58672C10.5835 6.69614 10.645 6.84454 10.645 6.99928C10.645 7.15402 10.5835 7.30243 10.4741 7.41185C10.3647 7.52126 10.2163 7.58274 10.0615 7.58274Z" fill="white"/>
</g>
<defs>
<clipPath id="clip0_6_339">
<rect width="14" height="14" fill="white"/>
</clipPath>
</defs>
</svg>
