<svg width="368" height="368" viewBox="0 0 368 368" fill="none" xmlns="http://www.w3.org/2000/svg">
<path d="M222.042 187.812C222.411 187.829 222.771 187.697 223.043 187.448C223.315 187.198 223.477 186.85 223.493 186.482C223.509 186.114 223.378 185.754 223.128 185.481C222.879 185.209 222.531 185.047 222.163 185.032L204.796 183.488C204.613 183.472 204.429 183.492 204.254 183.547C204.08 183.602 203.917 183.691 203.777 183.808C203.636 183.926 203.52 184.07 203.435 184.234C203.351 184.396 203.299 184.572 203.282 184.756C203.266 184.938 203.286 185.122 203.341 185.297C203.396 185.472 203.485 185.634 203.603 185.776C203.721 185.915 203.865 186.031 204.027 186.116C204.19 186.201 204.368 186.252 204.55 186.269L221.917 187.811C221.959 187.812 222 187.814 222.042 187.812Z" fill="#2F5DFF"/>
<path d="M219.885 221.214C210.241 221.214 202.423 213.396 202.423 203.752C202.423 194.107 210.241 186.289 219.885 186.289C229.529 186.289 237.347 194.107 237.347 203.752C237.347 213.396 229.529 221.214 219.885 221.214Z" fill="#2F5DFF"/>
<path d="M219.885 222.603C223.613 222.603 227.258 221.497 230.358 219.426C233.458 217.354 235.874 214.41 237.301 210.965C238.727 207.519 239.1 203.728 238.372 200.072C237.645 196.416 235.849 193.056 233.213 190.42C230.576 187.783 227.217 185.989 223.56 185.262C219.903 184.534 216.112 184.907 212.668 186.335C209.223 187.761 206.279 190.179 204.207 193.277C202.136 196.378 201.03 200.023 201.03 203.752C201.036 208.75 203.024 213.543 206.559 217.078C210.094 220.612 214.886 222.6 219.885 222.603ZM219.885 187.68C223.063 187.68 226.17 188.624 228.813 190.39C231.456 192.157 233.515 194.666 234.731 197.603C235.948 200.54 236.265 203.771 235.645 206.888C235.025 210.007 233.494 212.87 231.246 215.116C228.998 217.365 226.135 218.894 223.017 219.514C219.9 220.134 216.668 219.816 213.732 218.599C210.795 217.383 208.286 215.322 206.52 212.68C204.754 210.038 203.811 206.93 203.811 203.752C203.816 199.491 205.511 195.404 208.525 192.392C211.538 189.378 215.624 187.684 219.885 187.68ZM259.826 216.377C250.182 216.377 242.364 208.558 242.364 198.915C242.364 189.272 250.182 181.453 259.826 181.453C269.47 181.453 277.288 189.272 277.288 198.915C277.288 208.558 269.47 216.377 259.826 216.377Z" fill="#2F5DFF"/>
<path d="M259.836 217.768C263.564 217.768 267.209 216.662 270.309 214.59C273.41 212.518 275.826 209.574 277.253 206.13C278.68 202.685 279.053 198.895 278.326 195.237C277.598 191.581 275.803 188.221 273.166 185.584C270.53 182.948 267.17 181.153 263.513 180.425C259.856 179.698 256.066 180.071 252.621 181.498C249.176 182.925 246.232 185.341 244.16 188.442C242.089 191.542 240.983 195.187 240.983 198.915C240.989 203.912 242.978 208.706 246.512 212.238C250.046 215.773 254.837 217.762 259.836 217.768ZM259.836 182.844C263.014 182.844 266.121 183.786 268.764 185.553C271.407 187.318 273.467 189.829 274.684 192.766C275.9 195.702 276.218 198.933 275.598 202.05C274.978 205.167 273.447 208.032 271.2 210.279C268.952 212.527 266.089 214.058 262.971 214.678C259.853 215.298 256.622 214.98 253.685 213.764C250.749 212.548 248.239 210.487 246.473 207.845C244.707 205.2 243.764 202.095 243.764 198.915C243.77 194.655 245.465 190.571 248.477 187.557C251.49 184.545 255.575 182.849 259.836 182.844Z" fill="#2F5DFF"/>
<path d="M154.904 90.1877C155.169 90.1879 155.43 90.1121 155.653 89.9693C155.877 89.8264 156.056 89.6223 156.166 89.3813C156.613 88.4136 157.2 87.5172 157.909 86.7208C158.032 86.5839 158.124 86.4244 158.185 86.2512C158.245 86.0781 158.271 85.8948 158.26 85.7119C158.249 85.529 158.201 85.35 158.122 85.1851C158.043 85.0203 157.931 84.8727 157.793 84.7511C157.656 84.6293 157.496 84.5358 157.323 84.4756C157.15 84.4156 156.968 84.3903 156.784 84.4011C156.602 84.4118 156.422 84.4585 156.258 84.5384C156.092 84.6184 155.945 84.7299 155.824 84.867C154.933 85.8663 154.194 86.9926 153.634 88.2086C153.535 88.4204 153.493 88.6535 153.509 88.8863C153.524 89.1192 153.597 89.3443 153.724 89.541C153.85 89.7377 154.022 89.8996 154.227 90.0118C154.431 90.1241 154.661 90.1829 154.895 90.1831L154.904 90.1877ZM90.7485 93.9605C90.8405 93.9603 90.9325 93.9511 91.0227 93.9327C102.464 91.6227 114.234 91.4781 125.727 93.5064C125.909 93.5456 126.099 93.5476 126.283 93.5121C126.467 93.4767 126.64 93.4046 126.796 93.3003C126.951 93.1958 127.083 93.0613 127.184 92.9045C127.287 92.7477 127.355 92.5722 127.388 92.388C127.422 92.2038 127.416 92.0152 127.374 91.8331C127.331 91.6509 127.252 91.4792 127.142 91.3282C127.033 91.1771 126.894 91.0496 126.733 90.9537C126.573 90.8577 126.395 90.7951 126.209 90.7694C114.374 88.6793 102.254 88.8272 90.4744 91.2051C90.134 91.2711 89.8304 91.4617 89.6243 91.7396C89.4164 92.0176 89.3207 92.3626 89.3557 92.7074C89.3888 93.0522 89.5507 93.3719 89.8083 93.6037C90.0659 93.8354 90.4008 93.9627 90.7485 93.9605ZM133.882 88.7557C134.213 88.756 134.533 88.6385 134.785 88.4241C135.037 88.2095 135.205 87.9124 135.256 87.5858C135.31 87.2592 135.243 86.9247 135.07 86.6421C134.899 86.3596 134.633 86.1476 134.318 86.0442C123.357 82.4222 104.363 81.9935 97.3946 83.4951C97.2106 83.529 97.0377 83.5992 96.8831 83.7015C96.7267 83.8039 96.5942 83.9361 96.4912 84.0907C96.3882 84.2453 96.3164 84.419 96.2814 84.6013C96.2465 84.7838 96.2502 84.9715 96.2888 85.1531C96.3274 85.3349 96.4029 85.507 96.5078 85.6591C96.6145 85.8113 96.7506 85.9408 96.9089 86.0396C97.0653 86.1384 97.2419 86.2047 97.4241 86.2347C97.6081 86.2645 97.7957 86.2573 97.9761 86.2135C104.677 84.7813 123.236 85.3235 133.444 88.6955C133.586 88.7389 133.735 88.7593 133.882 88.7557ZM126.941 79.6644C127.273 79.6543 127.591 79.5257 127.836 79.3019C128.08 79.0782 128.239 78.774 128.279 78.4447C128.32 78.1151 128.24 77.7821 128.056 77.5055C127.874 77.229 127.596 77.0273 127.278 76.9368C121.626 75.5095 115.762 75.1246 109.971 75.8013C109.605 75.8444 109.27 76.0311 109.042 76.3206C108.814 76.61 108.709 76.9784 108.751 77.3447C108.795 77.7111 108.981 78.0452 109.272 78.2739C109.561 78.5024 109.929 78.6068 110.295 78.5637C115.745 77.9262 121.267 78.2883 126.586 79.632C126.704 79.658 126.822 79.6688 126.941 79.6644ZM95.6227 72.3736C95.6742 72.3736 95.7258 72.3736 95.7773 72.3736C102.657 71.6111 112.08 70.566 119.296 71.8383C119.653 71.8895 120.017 71.7997 120.308 71.5881C120.601 71.3765 120.799 71.0595 120.862 70.7042C120.925 70.3489 120.847 69.9831 120.645 69.6839C120.444 69.3849 120.133 69.1759 119.78 69.1013C112.17 67.7572 102.517 68.8279 95.47 69.609C95.102 69.6292 94.7561 69.7952 94.5095 70.0703C94.263 70.3454 94.136 70.7071 94.1562 71.0758C94.1765 71.4446 94.3421 71.7903 94.6181 72.0367C94.8922 72.2831 95.2547 72.4102 95.6227 72.3898V72.3736ZM123.894 65.5141C124.229 65.5135 124.555 65.3913 124.807 65.1702C125.061 64.9488 125.225 64.6436 125.269 64.3107C125.315 63.9779 125.238 63.6398 125.054 63.3591C124.868 63.0785 124.588 62.8742 124.264 62.7841C121.948 62.1305 113.029 61.6114 112.35 61.586C111.982 61.5733 111.623 61.7078 111.353 61.9596C111.084 62.2115 110.926 62.5601 110.913 62.9289C110.9 63.2976 111.035 63.6564 111.287 63.926C111.539 64.1957 111.886 64.3543 112.256 64.3668C113.938 64.4248 121.758 64.9694 123.51 65.4607C123.635 65.4973 123.764 65.5152 123.894 65.5141ZM136.949 61.674C137.275 61.6744 137.589 61.5603 137.842 61.3516C138.092 61.1428 138.261 60.8528 138.318 60.5319C138.377 60.2112 138.32 59.8802 138.16 59.5966C137.998 59.3131 137.742 59.0952 137.437 58.9811C126.434 54.8514 114.667 54.578 103.283 54.2906C103.1 54.2862 102.918 54.3178 102.749 54.3835C102.578 54.4494 102.422 54.548 102.289 54.6741C102.158 54.8001 102.052 54.9508 101.978 55.1179C101.903 55.285 101.864 55.4649 101.858 55.6474C101.855 55.83 101.886 56.0118 101.952 56.1821C102.017 56.3525 102.116 56.5082 102.243 56.6405C102.368 56.7728 102.519 56.8789 102.686 56.9529C102.854 57.0267 103.032 57.0672 103.216 57.0716C114.367 57.3404 125.896 57.6208 136.46 61.5836C136.616 61.6429 136.782 61.6734 136.949 61.674ZM145.816 59.7876C146.129 59.788 146.431 59.6835 146.677 59.491C146.922 59.2986 147.095 59.0292 147.168 58.7263C147.242 58.4234 147.213 58.1046 147.084 57.8208C146.955 57.5373 146.734 57.3053 146.456 57.1621C139.737 53.6858 133.917 52.1564 126.358 51.883C125.988 51.8697 125.629 52.0035 125.359 52.255C125.09 52.5064 124.93 52.8549 124.917 53.2236C124.904 53.5923 125.037 53.9513 125.289 54.2214C125.541 54.4915 125.889 54.6507 126.257 54.6638C133.372 54.921 138.855 56.3603 145.179 59.6325C145.376 59.7343 145.595 59.7874 145.816 59.7876ZM170.803 118.187C171.083 118.187 171.355 118.103 171.585 117.947C171.815 117.79 171.994 117.568 172.097 117.309C172.198 117.05 172.222 116.766 172.161 116.494C172.1 116.222 171.959 115.975 171.756 115.784C167.889 112.153 162.878 109.98 157.585 109.636C157.403 109.624 157.219 109.648 157.046 109.707C156.873 109.766 156.713 109.859 156.576 109.98C156.438 110.101 156.326 110.247 156.245 110.412C156.164 110.576 156.116 110.754 156.105 110.937C156.094 111.12 156.118 111.303 156.177 111.476C156.236 111.649 156.328 111.809 156.449 111.946C156.571 112.084 156.716 112.196 156.882 112.277C157.046 112.357 157.224 112.405 157.406 112.417C162.05 112.744 166.441 114.649 169.852 117.816C170.11 118.056 170.45 118.189 170.803 118.187ZM185.932 161.774C186.226 161.774 186.512 161.681 186.75 161.508C186.988 161.335 187.165 161.091 187.255 160.812L194.782 137.496C196.842 131.116 198.972 124.518 202.733 118.92C203.639 117.573 204.675 116.229 205.676 114.927C208.476 111.291 211.37 107.529 212.244 102.846C213.268 97.3534 210.995 91.3536 206.589 87.9168C202.356 84.6144 196.305 83.7987 191.334 85.8102L187.162 83.8982C186.995 83.8143 186.813 83.7647 186.627 83.7527C186.441 83.7406 186.254 83.7663 186.077 83.8281C185.901 83.89 185.739 83.9866 185.601 84.1124C185.463 84.2383 185.351 84.3906 185.273 84.5605C185.195 84.7303 185.153 84.9141 185.147 85.1009C185.142 85.2876 185.174 85.4737 185.242 85.6475C185.311 85.8216 185.413 85.98 185.544 86.1134C185.675 86.2468 185.831 86.3526 186.004 86.4244L190.731 88.5958C190.913 88.6782 191.111 88.7209 191.311 88.7209C191.51 88.7209 191.708 88.6782 191.89 88.5958C196.05 86.6862 201.269 87.2956 204.868 90.109C208.467 92.9223 210.337 97.8377 209.503 102.336C208.752 106.361 206.184 109.698 203.466 113.228C202.437 114.565 201.38 115.946 200.418 117.367C196.446 123.285 194.251 130.078 192.136 136.643L184.609 159.957C184.541 160.165 184.524 160.387 184.559 160.603C184.594 160.819 184.679 161.025 184.808 161.202C184.937 161.379 185.106 161.523 185.301 161.622C185.497 161.722 185.713 161.773 185.932 161.774ZM124.386 153.663C124.709 153.662 125.024 153.548 125.274 153.34C125.523 153.132 125.692 152.844 125.751 152.525C127.422 143.512 129.4 130.646 129.337 120.544C129.337 118.711 129.238 116.771 128.299 115.005C126.925 112.417 124.332 111.209 121.824 110.042C119.578 108.994 117.452 108.002 116.604 106.141C115.958 104.723 116.372 103.36 116.836 102.456C117.342 101.523 118.043 100.71 118.891 100.072C119.741 99.4341 120.718 98.9866 121.754 98.7601C125.401 98.065 129.146 99.5342 133.31 101.372C133.648 101.521 134.031 101.53 134.375 101.396C134.721 101.262 134.997 100.997 135.146 100.659C135.295 100.321 135.304 99.9379 135.17 99.5934C135.037 99.249 134.772 98.9717 134.434 98.8227C130.689 97.1681 126.031 95.1149 121.236 96.0209C119.784 96.326 118.417 96.9451 117.23 97.8346C116.043 98.7242 115.066 99.8626 114.365 101.17C113.305 103.214 113.206 105.388 114.063 107.286C115.338 110.083 118.034 111.339 120.641 112.553C122.831 113.576 124.897 114.537 125.834 116.303C126.476 117.511 126.529 119.066 126.548 120.556C126.61 130.447 124.656 143.123 123.007 152.017C122.972 152.197 122.976 152.382 123.013 152.56C123.052 152.739 123.123 152.909 123.228 153.06C123.331 153.21 123.464 153.339 123.616 153.438C123.769 153.538 123.942 153.606 124.121 153.639C124.209 153.656 124.297 153.664 124.386 153.663Z" fill="#002036"/>
<path d="M121.633 107.923C121.933 107.924 122.228 107.826 122.469 107.646C122.71 107.465 122.886 107.21 122.971 106.921C123.054 106.632 123.043 106.323 122.936 106.041C122.829 105.759 122.634 105.519 122.379 105.358C122.331 105.313 122.294 105.259 122.266 105.198C122.241 105.138 122.228 105.073 122.228 105.008C122.217 104.834 122.242 104.66 122.303 104.497C122.364 104.334 122.46 104.186 122.583 104.062C123.321 103.411 124.616 103.483 125.323 103.585C125.687 103.638 126.059 103.543 126.353 103.322C126.649 103.101 126.844 102.772 126.898 102.407C126.949 102.041 126.855 101.67 126.635 101.375C126.412 101.08 126.084 100.884 125.718 100.832C123.646 100.535 121.924 100.931 120.741 101.979C120.294 102.387 119.946 102.891 119.723 103.453C119.503 104.015 119.411 104.621 119.457 105.223C119.486 105.72 119.63 106.202 119.88 106.633C120.128 107.063 120.474 107.429 120.892 107.701C121.113 107.844 121.37 107.921 121.633 107.923ZM183.058 87.0548C184.393 87.0629 185.72 86.873 186.998 86.4915C187.176 86.4406 187.341 86.3548 187.484 86.2393C187.628 86.1239 187.747 85.9811 187.835 85.819C187.923 85.6571 187.978 85.4794 187.996 85.2961C188.015 85.1126 187.997 84.9275 187.943 84.7513C187.89 84.5748 187.802 84.4111 187.684 84.269C187.567 84.1271 187.422 84.0099 187.259 83.9244C187.096 83.8386 186.917 83.7864 186.734 83.7704C186.55 83.7544 186.365 83.7751 186.19 83.8313C183.156 84.7583 179.439 84.2368 175.141 82.3041C174.743 82.1256 174.355 81.9309 173.943 81.7247C172.957 81.1923 171.919 80.7614 170.846 80.4385C169.185 79.9912 167.471 80.0445 165.963 80.0909L149.118 80.6076C147.031 80.6725 144.652 80.7443 142.722 79.9124C141.169 79.2497 139.649 77.6158 139.884 75.8987C139.952 75.4166 140.074 74.522 142.654 73.4745C146.28 72.003 152.991 71.0251 162.584 70.5685C162.952 70.5509 163.3 70.3877 163.549 70.1144C163.797 69.8414 163.926 69.4807 163.909 69.112C163.891 68.7433 163.727 68.3964 163.455 68.148C163.181 67.8998 162.82 67.7701 162.452 67.7876C140.985 68.8049 137.59 72.1026 137.121 75.5139C136.692 78.6309 139.058 81.3701 141.618 82.4662C144.115 83.5345 146.812 83.4511 149.191 83.377L166.04 82.8601C167.429 82.8185 168.85 82.7744 170.114 83.1151C171.01 83.3939 171.876 83.7619 172.699 84.2136C173.118 84.4221 173.553 84.6399 174 84.8392C177.271 86.3155 180.305 87.0548 183.058 87.0548Z" fill="#002036"/>
<path d="M138.67 80.026C138.901 80.026 139.115 80.026 139.33 80.026C139.7 80.0164 140.05 79.8607 140.303 79.5932C140.557 79.3258 140.695 78.9683 140.684 78.5996C140.675 78.2307 140.521 77.8809 140.252 77.6268C139.985 77.3729 139.628 77.2354 139.258 77.245C138.033 77.2774 136.623 77.245 135.455 76.7143C134.598 76.3296 133.694 75.4977 133.602 74.5034C133.527 73.6853 133.994 72.8233 134.397 72.2417C136.37 69.4097 141.435 65.5464 162.567 64.7332C162.75 64.7262 162.93 64.6833 163.096 64.6069C163.261 64.5306 163.41 64.4222 163.535 64.2883C163.659 64.1541 163.756 63.997 163.819 63.8255C163.883 63.6542 163.913 63.472 163.905 63.2893C163.898 63.1068 163.855 62.9274 163.778 62.7612C163.703 62.5953 163.594 62.4459 163.46 62.3217C163.326 62.1976 163.169 62.101 162.996 62.0376C162.825 61.9743 162.643 61.9452 162.461 61.9522C140.337 62.805 134.622 67.0506 132.103 70.6519C131.133 72.0424 130.712 73.4329 130.82 74.7514C130.989 76.6378 132.325 78.362 134.298 79.2495C135.759 79.8892 137.291 80.026 138.67 80.026Z" fill="#002036"/>
<path d="M130.379 74.8512C131.254 74.8556 132.11 74.5991 132.839 74.1143C132.995 74.0149 133.129 73.8856 133.234 73.7338C133.339 73.582 133.413 73.4108 133.451 73.2301C133.49 73.0495 133.492 72.8631 133.457 72.6816C133.422 72.5004 133.352 72.3278 133.251 72.1738C133.148 72.02 133.017 71.8879 132.863 71.7856C132.71 71.6831 132.537 71.6122 132.355 71.5771C132.174 71.542 131.989 71.5434 131.806 71.5811C131.626 71.6189 131.455 71.6921 131.302 71.7968C130.627 72.2463 129.841 72.0284 129.435 71.8548C128.507 71.463 127.77 70.615 127.602 69.7435C127.21 67.7181 128.715 65.6904 130.276 64.6637C131.383 63.9337 136.795 61.4378 146.777 59.5816C159.863 57.1482 175.941 56.7566 193.274 58.4507C193.642 58.4866 194.01 58.3745 194.297 58.1392C194.583 57.9039 194.764 57.5646 194.8 57.1957C194.836 56.8269 194.724 56.4589 194.488 56.1728C194.253 55.8867 193.914 55.7056 193.545 55.6697C175.7 53.9293 159.797 54.321 146.269 56.8284C135.786 58.7773 130.07 61.4518 128.752 62.3184C126.364 63.8874 124.237 66.9534 124.872 70.2464C125.072 71.1684 125.492 72.0281 126.097 72.7512C126.702 73.4743 127.475 74.039 128.349 74.3969C128.988 74.6821 129.678 74.8365 130.379 74.8512ZM234.751 319.172C234.969 319.172 235.184 319.12 235.379 319.023C235.573 318.925 235.742 318.784 235.871 318.607C236.001 318.432 236.087 318.23 236.124 318.015C236.16 317.799 236.146 317.58 236.081 317.371C233.908 310.327 236.42 300.454 238.849 290.884C240.183 285.636 241.442 280.686 241.861 276.399C242.112 273.812 241.706 271.194 241.317 268.66C240.774 265.138 240.262 261.81 241.507 258.91C248.672 242.223 268.31 225.724 276.421 219.405L277.536 218.533C288.871 209.705 300.592 200.578 310.272 189.93C311.783 188.267 313.41 186.628 314.983 185.043C318.286 181.715 321.704 178.276 324.401 174.279C328.448 168.288 330.684 161.414 332.835 154.768L338.216 138.252C338.807 136.437 339.474 134.381 339.231 132.194C338.848 128.773 336.408 126.199 333.942 123.851C318.522 109.191 305.415 98.3778 292.692 89.8218C276.384 78.8534 260.681 71.5765 244.686 67.5744C244.081 67.4213 243.472 67.273 242.862 67.1247C238.024 65.9498 233.02 64.733 229.363 61.6324C228.765 61.0816 228.204 60.4926 227.683 59.8688C225.514 57.403 222.353 53.8064 217.343 55.1551C216.569 52.606 213.976 50.2445 210.122 48.7219C205.334 46.8285 199.199 46.5411 196.293 50.1704C196.063 50.4583 195.956 50.8259 195.997 51.1927C196.038 51.5592 196.222 51.8946 196.51 52.1252C196.798 52.3555 197.166 52.4623 197.532 52.4216C197.899 52.3809 198.234 52.1964 198.465 51.9084C200.384 49.5122 205.266 49.7926 209.1 51.3082C212.661 52.7171 214.951 54.986 214.798 56.9535C214.779 57.1957 214.825 57.4385 214.929 57.658C215.033 57.8774 215.193 58.0656 215.393 58.204C215.593 58.3423 215.825 58.4259 216.067 58.4463C216.309 58.4667 216.552 58.4235 216.773 58.3208C220.62 56.527 222.856 58.5918 225.595 61.7066C226.203 62.4339 226.861 63.1177 227.565 63.7529C231.723 67.28 237.053 68.5755 242.204 69.8269C242.809 69.9752 243.414 70.1211 244.012 70.2718C279.332 79.1082 308.323 103.335 332.026 125.867C334.207 127.953 336.197 130.011 336.466 132.502C336.645 134.092 336.098 135.77 335.572 137.392L330.2 153.908C328.098 160.372 325.924 167.055 322.089 172.724C319.539 176.503 316.214 179.847 313.002 183.085C311.408 184.69 309.758 186.35 308.205 188.061C298.687 198.532 287.063 207.585 275.821 216.332L274.699 217.206C266.419 223.656 246.359 240.525 238.939 257.808C237.379 261.44 237.977 265.324 238.557 269.078C238.937 271.551 239.298 273.888 239.08 276.127C238.686 280.195 237.458 285.053 236.146 290.194C233.623 300.124 231.013 310.393 233.416 318.188C233.504 318.473 233.68 318.723 233.921 318.9C234.161 319.078 234.453 319.174 234.751 319.172Z" fill="#002036"/>
<path d="M328.895 137.473C329.143 137.473 329.385 137.408 329.599 137.283C329.812 137.158 329.989 136.979 330.11 136.764C331.104 134.993 331.157 132.72 330.249 130.68C329.34 128.641 327.618 127.16 325.637 126.715C325.459 126.675 325.274 126.671 325.095 126.702C324.915 126.733 324.743 126.8 324.588 126.897C324.434 126.995 324.301 127.122 324.195 127.271C324.09 127.421 324.016 127.589 323.975 127.767C323.936 127.946 323.931 128.13 323.962 128.31C323.993 128.49 324.06 128.662 324.157 128.816C324.255 128.97 324.382 129.104 324.531 129.209C324.681 129.314 324.849 129.389 325.028 129.429C326.154 129.682 327.157 130.572 327.709 131.811C328.26 133.051 328.251 134.393 327.686 135.401C327.567 135.612 327.505 135.851 327.507 136.094C327.509 136.336 327.575 136.574 327.697 136.784C327.819 136.993 327.994 137.167 328.204 137.288C328.415 137.409 328.653 137.472 328.895 137.473ZM230.928 76.8743C231.216 76.8717 231.497 76.7797 231.731 76.6106C231.965 76.4415 232.14 76.2038 232.233 75.9305C232.325 75.6573 232.331 75.362 232.248 75.0854C232.165 74.8091 231.999 74.5651 231.771 74.3877C227.816 71.3591 222.929 69.8022 217.95 69.9846C217.581 69.9986 217.233 70.1587 216.982 70.4295C216.732 70.7002 216.599 71.0595 216.613 71.4283C216.627 71.797 216.787 72.1451 217.058 72.3959C217.328 72.6467 217.688 72.7795 218.057 72.7654C222.384 72.6241 226.628 73.9713 230.082 76.5823C230.324 76.7701 230.621 76.8728 230.928 76.8743ZM222.694 83.2933C222.973 83.2933 223.245 83.2096 223.475 83.053C223.706 82.8964 223.884 82.6743 223.986 82.4153C224.089 82.1562 224.111 81.8725 224.051 81.6005C223.99 81.3286 223.849 81.0811 223.646 80.8903C222.582 79.9015 221.32 79.1494 219.944 78.6837C218.568 78.218 217.109 78.0491 215.663 78.188C215.481 78.2066 215.305 78.2607 215.144 78.3476C214.983 78.4342 214.841 78.5516 214.726 78.6933C214.611 78.8348 214.524 78.9978 214.472 79.1728C214.42 79.3476 214.402 79.5312 214.421 79.713C214.439 79.8946 214.493 80.0709 214.58 80.2315C214.667 80.3924 214.784 80.5344 214.926 80.6498C215.067 80.7651 215.231 80.8514 215.406 80.9039C215.58 80.9563 215.764 80.9736 215.946 80.955C216.995 80.8544 218.054 80.9773 219.053 81.3157C220.052 81.6539 220.967 82.2 221.739 82.9179C221.998 83.1603 222.34 83.2946 222.694 83.2933ZM260.19 145.649C260.508 145.645 260.815 145.532 261.06 145.329C261.305 145.126 261.473 144.845 261.536 144.534C261.599 144.222 261.553 143.898 261.406 143.616C261.259 143.334 261.019 143.111 260.728 142.984C259.391 142.426 258.007 142.127 256.668 141.825C255.136 141.494 253.688 141.179 252.432 140.514C251.226 139.874 250.232 138.481 250.065 137.204C249.977 136.509 250.149 135.96 250.575 135.566C250.758 135.397 250.893 135.182 250.964 134.943C251.036 134.705 251.042 134.451 250.982 134.209C250.922 133.967 250.798 133.746 250.624 133.569C250.449 133.391 250.23 133.264 249.989 133.2C245.836 132.097 241.646 130.908 237.537 129.666C232.071 128.011 226.877 126.21 223.324 122.375C222.485 121.429 221.701 120.434 220.979 119.395C219.865 117.861 218.713 116.273 217.19 114.966C216.409 114.294 215.536 113.682 214.69 113.091C212.551 111.594 210.518 110.183 210.44 108.153C210.432 107.97 210.388 107.791 210.311 107.625C210.233 107.46 210.124 107.311 209.99 107.187C209.855 107.064 209.697 106.968 209.525 106.905C209.354 106.843 209.171 106.815 208.989 106.823C208.806 106.831 208.627 106.874 208.461 106.951C208.296 107.029 208.147 107.138 208.023 107.273C207.9 107.407 207.804 107.565 207.741 107.737C207.679 107.908 207.651 108.091 207.659 108.273C207.807 111.675 210.613 113.638 213.091 115.372C213.918 115.949 214.697 116.496 215.373 117.075C216.648 118.171 217.656 119.559 218.724 121.029C219.509 122.16 220.36 123.243 221.274 124.273C225.306 128.616 231.118 130.632 236.733 132.324C240.281 133.397 243.889 134.433 247.484 135.406C247.267 136.102 247.207 136.837 247.308 137.559C247.588 139.73 249.125 141.904 251.129 142.968C252.724 143.814 254.429 144.182 256.079 144.541C257.351 144.815 258.554 145.077 259.655 145.538C259.825 145.609 260.006 145.647 260.19 145.649Z" fill="#002036"/>
<path d="M252.137 156.525C252.406 156.525 252.669 156.448 252.894 156.302C253.12 156.156 253.298 155.948 253.408 155.703C253.518 155.458 253.554 155.186 253.513 154.921C253.472 154.655 253.354 154.407 253.175 154.207C251.134 151.908 249.419 149.804 249.129 147.382C248.948 145.883 249.344 144.37 250.116 143.6C250.305 143.404 250.539 143.258 250.798 143.174C251.056 143.091 251.332 143.072 251.599 143.121C251.784 143.153 251.974 143.147 252.156 143.104C252.338 143.06 252.51 142.981 252.661 142.869C252.812 142.758 252.939 142.617 253.034 142.456C253.129 142.294 253.191 142.115 253.215 141.929C253.239 141.743 253.225 141.554 253.174 141.374C253.124 141.193 253.037 141.025 252.919 140.879C252.802 140.733 252.656 140.612 252.49 140.524C252.325 140.435 252.143 140.381 251.956 140.365C251.268 140.265 250.567 140.327 249.907 140.546C249.247 140.765 248.648 141.135 248.156 141.626C246.765 143.002 246.07 145.334 246.362 147.716C246.781 151.204 249.273 154.008 251.092 156.059C251.223 156.206 251.384 156.324 251.564 156.404C251.744 156.485 251.94 156.526 252.137 156.525Z" fill="#002036"/>
<path d="M200.465 157.401C200.666 157.4 200.864 157.357 201.047 157.273C205.601 155.171 213.983 153.642 222.444 154.967C222.835 155.028 223.232 155.095 223.633 155.16C227.34 155.776 231.551 156.474 234.895 154.108C235.57 153.605 236.198 153.042 236.772 152.427C237.228 151.938 237.723 151.487 238.253 151.079C240.844 149.225 244.71 149.971 248.13 150.819C248.488 150.908 248.867 150.851 249.183 150.661C249.499 150.47 249.726 150.162 249.815 149.804C249.904 149.446 249.847 149.067 249.657 148.752C249.466 148.436 249.158 148.208 248.8 148.119C244.777 147.123 240.186 146.265 236.634 148.815C235.974 149.312 235.359 149.865 234.793 150.467C234.333 150.965 233.829 151.423 233.289 151.834C230.879 153.54 227.426 152.967 224.087 152.414C223.679 152.344 223.273 152.277 222.875 152.214C213.837 150.801 204.817 152.464 199.881 154.743C199.593 154.875 199.359 155.102 199.218 155.387C199.076 155.671 199.037 155.995 199.105 156.304C199.173 156.614 199.345 156.892 199.593 157.09C199.84 157.289 200.148 157.397 200.465 157.396V157.401ZM194.444 161.009C194.792 161.011 195.128 160.882 195.385 160.648C195.643 160.414 195.803 160.092 195.835 159.746C196.335 154.261 195.021 151.058 190.813 147.505C190.673 147.386 190.512 147.296 190.338 147.24C190.163 147.184 189.98 147.163 189.797 147.178C189.615 147.193 189.437 147.243 189.274 147.327C189.111 147.411 188.967 147.526 188.848 147.666C188.73 147.807 188.641 147.968 188.585 148.143C188.53 148.318 188.51 148.501 188.526 148.684C188.541 148.867 188.593 149.044 188.678 149.206C188.763 149.369 188.879 149.513 189.019 149.63C192.539 152.601 193.485 154.905 193.065 159.491C193.049 159.673 193.068 159.857 193.122 160.031C193.176 160.206 193.264 160.368 193.381 160.509C193.498 160.649 193.641 160.765 193.803 160.85C193.965 160.935 194.142 160.988 194.324 161.004L194.444 161.009ZM150.312 174.137C150.624 174.138 150.928 174.033 151.173 173.839C151.417 173.646 151.59 173.375 151.664 173.071C151.738 172.767 151.704 172.447 151.574 172.164C151.443 171.88 151.221 171.649 150.941 171.507C138.532 165.215 129.319 157.665 121.952 147.74C121.733 147.443 121.405 147.246 121.039 147.192C120.675 147.138 120.303 147.231 120.007 147.451C119.711 147.671 119.514 147.999 119.46 148.364C119.405 148.729 119.499 149.1 119.718 149.396C127.367 159.681 136.867 167.493 149.686 173.987C149.879 174.085 150.094 174.137 150.312 174.137Z" fill="#002036"/>
<path d="M134.813 183.634C135.097 183.633 135.373 183.546 135.606 183.385C135.838 183.223 136.015 182.994 136.114 182.729C136.213 182.463 136.228 182.174 136.158 181.9C136.088 181.626 135.936 181.379 135.722 181.194C132.988 178.825 130.11 176.466 127.324 174.186C120.102 168.272 113.28 162.684 109.493 157.5C108.045 155.514 106.865 152.217 106.864 151.116C106.864 149.046 107.828 147.176 109.666 145.693C112.098 143.735 115.9 142.511 120.96 142.052C121.33 142.019 121.67 141.841 121.907 141.557C122.145 141.272 122.259 140.905 122.226 140.537C122.193 140.168 122.014 139.827 121.731 139.59C121.446 139.353 121.079 139.238 120.71 139.271C115.092 139.779 110.792 141.206 107.922 143.512C104.738 146.073 104.078 149.058 104.083 151.111C104.083 153.009 105.623 156.905 107.246 159.127C111.243 164.606 118.198 170.302 125.554 176.334C128.324 178.603 131.187 180.948 133.897 183.286C134.149 183.51 134.476 183.634 134.813 183.634ZM167.322 227.626C168.496 227.652 169.657 227.382 170.701 226.843C172.104 226.081 173.001 224.815 173.713 223.797C176.651 219.656 179.411 214.759 177.617 209.927C177.47 209.613 177.209 209.364 176.887 209.232C176.565 209.099 176.204 209.092 175.878 209.214C175.551 209.333 175.282 209.572 175.122 209.881C174.962 210.191 174.925 210.549 175.017 210.884C176.364 214.515 173.972 218.632 171.455 222.18C170.759 223.174 170.149 223.968 169.37 224.388C167.311 225.505 163.87 224.279 161.593 223.462C151.344 219.816 135.847 209.035 131.315 203.342C129.707 201.324 128.533 197.931 128.412 194.898C128.335 193.082 130.011 187.989 132.219 186.136C132.359 186.02 132.475 185.875 132.559 185.713C132.644 185.551 132.695 185.374 132.71 185.192C132.743 184.826 132.627 184.46 132.392 184.177C132.154 183.895 131.814 183.718 131.448 183.685C131.08 183.653 130.714 183.768 130.432 184.006C127.326 186.609 125.536 192.701 125.632 195.018C125.788 198.646 127.164 202.593 129.139 205.075C134.322 211.587 150.821 222.581 160.656 226.083C162.503 226.751 164.954 227.626 167.322 227.626Z" fill="#002036"/>
<path d="M172.837 224.892H172.864C176.268 224.824 179.03 223.255 181.308 220.099C183.794 216.658 184.718 212.796 183.781 209.771C183.731 209.593 183.645 209.427 183.529 209.282C183.413 209.138 183.27 209.018 183.106 208.93C182.944 208.842 182.765 208.787 182.58 208.77C182.396 208.752 182.21 208.77 182.033 208.825C181.856 208.88 181.693 208.969 181.551 209.088C181.409 209.208 181.292 209.353 181.209 209.519C181.124 209.683 181.073 209.863 181.058 210.047C181.045 210.231 181.067 210.417 181.126 210.593C181.805 212.79 181.03 215.734 179.056 218.472C177.297 220.905 175.313 222.064 172.8 222.116C172.43 222.119 172.079 222.268 171.819 222.533C171.562 222.796 171.418 223.151 171.422 223.519C171.425 223.887 171.576 224.241 171.839 224.498C172.103 224.758 172.458 224.899 172.828 224.896L172.837 224.892ZM145.605 239.791C145.936 239.791 146.254 239.673 146.506 239.456C151.526 235.132 154.738 229.078 155.504 222.495C155.544 222.128 155.44 221.76 155.208 221.473C154.978 221.185 154.643 221.001 154.277 220.958C153.909 220.918 153.542 221.024 153.254 221.254C152.965 221.484 152.781 221.821 152.74 222.187C152.058 228.07 149.187 233.479 144.701 237.343C144.484 237.527 144.33 237.774 144.258 238.05C144.186 238.324 144.201 238.615 144.3 238.882C144.398 239.148 144.576 239.378 144.81 239.54C145.042 239.704 145.319 239.791 145.605 239.791ZM145.296 224.136C145.515 224.136 145.732 224.084 145.927 223.985C146.122 223.886 146.291 223.742 146.42 223.565C147.491 222.103 148.37 220.507 149.036 218.82C149.104 218.649 149.139 218.467 149.138 218.285C149.136 218.101 149.097 217.92 149.023 217.751C148.952 217.584 148.847 217.431 148.714 217.302C148.584 217.175 148.427 217.074 148.258 217.008C148.087 216.94 147.905 216.907 147.721 216.91C147.539 216.914 147.356 216.953 147.189 217.026C147.021 217.1 146.869 217.206 146.742 217.339C146.615 217.471 146.516 217.626 146.449 217.797C145.872 219.265 145.106 220.653 144.175 221.924C144.022 222.132 143.932 222.377 143.912 222.633C143.89 222.888 143.941 223.146 144.057 223.374C144.173 223.604 144.35 223.795 144.569 223.93C144.788 224.064 145.04 224.136 145.296 224.136ZM123.019 215.609C123.208 215.609 123.396 215.571 123.571 215.495C123.745 215.422 123.904 215.311 124.033 215.171C126.321 212.741 129.194 210.934 132.377 209.926C132.554 209.874 132.721 209.788 132.865 209.672C133.01 209.554 133.13 209.41 133.218 209.247C133.304 209.083 133.36 208.904 133.376 208.719C133.393 208.535 133.374 208.347 133.317 208.17C133.262 207.994 133.172 207.83 133.05 207.688C132.931 207.546 132.784 207.431 132.618 207.348C132.452 207.263 132.272 207.213 132.086 207.202C131.9 207.189 131.715 207.213 131.54 207.274C127.9 208.424 124.618 210.489 122.001 213.267C121.815 213.464 121.69 213.712 121.644 213.979C121.598 214.248 121.63 214.522 121.738 214.77C121.845 215.021 122.023 215.232 122.25 215.381C122.478 215.53 122.743 215.609 123.013 215.609H123.019Z" fill="#002036"/>
<path d="M64.0925 303.613C65.9068 303.613 67.7063 303.569 69.4764 303.514C81.118 303.144 90.3861 302.139 98.644 300.343C109.228 298.043 118.043 294.463 125.595 289.403C131.157 285.673 136.083 281.06 140.844 276.607L155.443 262.934C155.907 262.505 156.455 262.007 157.093 261.425C160.317 258.509 165.71 253.627 169.396 248.249C174.055 241.445 174.868 235.503 171.812 230.616C171.718 230.456 171.591 230.32 171.442 230.21C171.295 230.101 171.125 230.022 170.945 229.978C170.767 229.936 170.579 229.928 170.397 229.958C170.215 229.987 170.04 230.053 169.883 230.151C169.727 230.248 169.591 230.377 169.484 230.528C169.377 230.677 169.302 230.848 169.261 231.029C169.223 231.209 169.219 231.395 169.25 231.577C169.283 231.759 169.352 231.932 169.453 232.087C171.905 236.026 171.135 240.786 167.101 246.687C163.602 251.786 158.564 256.356 155.228 259.372C154.58 259.961 154.019 260.469 153.544 260.914L138.944 274.587C134.263 278.966 129.422 283.498 124.047 287.101C107.513 298.185 86.1523 300.213 69.388 300.741C62.3427 300.972 54.8833 300.995 47.9355 298.744C40.57 296.36 34.8807 291.414 32.715 285.509C30.6653 279.927 31.576 273.945 32.5439 267.611C32.9873 264.686 33.4492 261.663 33.5927 258.678C33.7619 255.164 33.4823 251.64 33.2136 248.229C32.9818 245.139 32.715 241.943 32.8089 238.836C33.0922 229.592 36.2864 221.015 39.6536 211.935C41.95 205.752 44.3254 199.36 45.6594 192.793C45.9538 191.338 46.2041 189.848 46.4469 188.409C47.2087 183.891 47.9244 179.627 49.9724 175.85C51.4664 173.097 53.7664 170.476 56.9993 167.841C69.6015 157.563 86.5718 154.339 101.555 151.512C101.916 151.443 102.236 151.233 102.444 150.928C102.652 150.623 102.729 150.249 102.661 149.886C102.593 149.524 102.381 149.204 102.077 148.996C101.772 148.789 101.397 148.711 101.034 148.78C85.7401 151.677 68.4 154.96 55.2513 165.674C51.7314 168.545 49.2069 171.435 47.5399 174.515C45.2675 178.7 44.4781 183.395 43.7164 187.938C43.4845 189.354 43.2288 190.821 42.9436 192.23C41.6537 198.586 39.3151 204.877 37.0556 210.956C33.7509 219.849 30.334 229.032 30.0396 238.744C29.9403 242.004 30.1997 245.276 30.45 248.439C30.7131 251.762 30.9836 255.197 30.8235 258.537C30.6892 261.376 30.2365 264.329 29.8023 267.185C28.8252 273.586 27.8169 280.204 30.1151 286.459C32.5733 293.156 38.9213 298.741 47.0872 301.381C52.6569 303.186 58.4492 303.613 64.0925 303.613Z" fill="#002036"/>
<path d="M47.4589 291.995C47.8269 291.999 48.182 291.855 48.4451 291.598C48.7083 291.338 48.8573 290.987 48.861 290.617C48.8647 290.249 48.7211 289.894 48.4635 289.631C48.2041 289.368 47.8527 289.219 47.4828 289.215C44.824 289.169 43.0558 288.727 41.7494 287.794C40.4448 286.86 39.5303 285.012 40.2351 283.564C40.3915 283.235 40.4117 282.856 40.2921 282.51C40.1725 282.164 39.9204 281.881 39.5911 281.719C39.2635 281.559 38.8845 281.533 38.5386 281.649C38.1908 281.765 37.9038 282.013 37.7382 282.339C36.3729 285.119 37.8854 288.448 40.132 290.056C42.4504 291.717 45.411 291.958 47.4332 291.995H47.4589ZM62.1568 252.054C62.4899 252.054 62.81 251.935 63.0621 251.718C63.3123 251.502 63.4798 251.202 63.5295 250.875C64.7273 243.106 70.5969 235.989 81.4786 229.113C83.0022 228.149 84.5919 227.187 86.132 226.256C93.3154 221.902 100.762 217.402 105.695 210.393C106.236 209.629 106.746 208.831 107.239 208.062C108.694 205.789 110.07 203.642 112.105 202.269C114.98 200.337 118.74 200.242 122.996 200.313H123.022C123.392 200.315 123.747 200.172 124.008 199.914C124.272 199.655 124.422 199.303 124.424 198.933C124.428 198.565 124.284 198.21 124.025 197.947C123.767 197.684 123.414 197.535 123.046 197.531C119.186 197.467 114.383 197.386 110.552 199.96C108.045 201.646 106.446 204.131 104.902 206.551C104.423 207.294 103.928 208.067 103.426 208.781C98.8262 215.313 91.6447 219.661 84.6968 223.865C83.1457 224.804 81.5449 225.772 79.9975 226.751C68.3963 234.083 62.1127 241.829 60.786 250.439C60.729 250.803 60.8191 251.175 61.0381 251.471C61.2552 251.769 61.5809 251.968 61.9434 252.025C62.0151 252.04 62.0851 252.051 62.1568 252.054Z" fill="#002036"/>
<path d="M49.5016 242.352C49.7574 242.35 50.0058 242.282 50.2229 242.15C53.0362 240.438 55.9453 238.674 59.099 237.862C62.3926 237.016 65.6458 237.458 67.8004 239.04C67.9476 239.152 68.1151 239.235 68.2954 239.283C68.4739 239.331 68.6615 239.342 68.8437 239.316C69.0277 239.29 69.2043 239.228 69.3644 239.132C69.5226 239.036 69.6606 238.911 69.771 238.762C69.8814 238.611 69.9587 238.442 70.0029 238.262C70.0452 238.081 70.0526 237.894 70.0213 237.711C69.9919 237.529 69.9256 237.354 69.8262 237.196C69.7269 237.04 69.5981 236.904 69.4454 236.799C66.5842 234.696 62.5619 234.103 58.409 235.176C54.8542 236.087 51.7666 237.958 48.7785 239.78C48.519 239.936 48.3185 240.175 48.2081 240.457C48.0958 240.74 48.0793 241.051 48.1621 241.344C48.243 241.636 48.4197 241.892 48.6607 242.076C48.9036 242.26 49.198 242.359 49.5016 242.357V242.352Z" fill="#002036"/>
<path d="M69.703 236.595C70.0011 236.593 70.2918 236.495 70.531 236.317C70.7684 236.138 70.9432 235.888 71.0297 235.603C71.1143 235.318 71.107 235.012 71.0039 234.731C70.9027 234.451 70.715 234.21 70.4666 234.046C66.5898 231.542 61.9511 230.497 57.3769 231.095C57.1947 231.117 57.0162 231.176 56.8562 231.266C56.6961 231.358 56.5544 231.479 56.4422 231.625C56.3299 231.77 56.2471 231.938 56.1993 232.116C56.1515 232.294 56.1386 232.48 56.1643 232.662C56.1882 232.845 56.249 233.021 56.3428 233.18C56.4366 233.34 56.5599 233.478 56.709 233.588C56.8562 233.7 57.0236 233.779 57.2021 233.825C57.3824 233.87 57.5682 233.879 57.7504 233.851C61.6622 233.34 65.6311 234.234 68.945 236.374C69.1713 236.519 69.4344 236.596 69.703 236.595ZM74.6416 320.648C74.9839 320.651 75.3132 320.528 75.5708 320.302C75.8266 320.075 75.9922 319.764 76.0326 319.424C76.2185 317.867 76.2369 314.557 76.2645 311.035C76.2829 307.755 76.3013 304.362 76.4687 302.962C76.511 302.595 76.408 302.225 76.1799 301.937C75.9535 301.646 75.6186 301.458 75.2525 301.414C74.8863 301.37 74.5165 301.475 74.2276 301.701C73.9369 301.929 73.7492 302.264 73.705 302.63C73.521 304.187 73.5008 307.497 73.4732 311.019C73.4548 314.301 73.4364 317.693 73.269 319.093C73.2487 319.275 73.2616 319.459 73.3113 319.634C73.361 319.81 73.4456 319.974 73.5579 320.118C73.6701 320.261 73.8118 320.381 73.97 320.471C74.1301 320.559 74.3049 320.618 74.487 320.638C74.5386 320.646 74.5901 320.648 74.6416 320.648Z" fill="#002036"/>
<path d="M214.877 221.689C215.243 221.683 215.607 221.646 215.966 221.582C216.726 221.446 217.501 221.42 218.267 221.505C224.314 222.057 230.566 218.724 233.468 213.383L233.551 213.23C233.581 213.169 233.616 213.109 233.648 213.046C233.984 213.536 234.42 214.005 235.104 214.13C243.025 215.6 260.661 217.698 260.827 217.718C260.919 217.727 261.011 217.727 261.103 217.718C261.38 217.696 261.644 217.591 261.862 217.42C262.08 217.247 262.243 217.015 262.331 216.752C262.728 215.617 262.723 203.671 262.705 198.586C262.686 194.092 262.633 189.947 262.554 186.911C262.401 181.034 262.253 180.885 261.766 180.436C261.528 180.212 261.219 180.079 260.892 180.061L224.527 177.996C224.158 177.975 223.796 178.101 223.521 178.347C223.245 178.593 223.079 178.938 223.058 179.307C223.037 179.676 223.163 180.038 223.409 180.314C223.655 180.589 224.001 180.756 224.369 180.776L259.608 182.777C259.961 187.663 260.072 209.232 259.775 214.789C255.532 214.275 242.566 212.662 235.906 211.455C235.838 211.353 235.757 211.223 235.697 211.118C235.356 210.56 234.457 209.075 233.004 209.764C231.973 210.251 231.456 211.212 231.078 211.911L231 212.054C228.615 216.445 223.472 219.19 218.499 218.735C217.5 218.629 216.491 218.662 215.5 218.837C214.782 218.953 214.486 219 213.044 218.312C202.256 213.168 184.885 204.196 184.709 204.109C184.546 204.019 184.367 203.962 184.182 203.944C183.996 203.923 183.811 203.942 183.632 203.995C183.454 204.049 183.29 204.139 183.146 204.258C183.003 204.376 182.887 204.523 182.8 204.689C182.716 204.853 182.664 205.035 182.649 205.219C182.637 205.405 182.659 205.591 182.718 205.767C182.776 205.944 182.87 206.106 182.994 206.246C183.117 206.385 183.266 206.498 183.433 206.579C183.608 206.669 201.019 215.659 211.848 220.824C213.276 221.492 214.122 221.689 214.877 221.689Z" fill="#2F5DFF"/>
<path d="M142.037 184.787C142.267 184.789 142.491 184.732 142.694 184.626C142.896 184.517 143.069 184.362 143.196 184.171C149.343 174.978 163.21 164.225 175.773 162.142C181.84 161.134 187.026 162.235 191.186 165.414C191.355 165.541 191.55 165.628 191.758 165.669C191.966 165.709 192.18 165.701 192.384 165.646C193.828 165.294 203.025 166.422 205.232 170.411C205.341 170.607 205.495 170.774 205.682 170.897C205.87 171.021 206.084 171.097 206.307 171.12C213.118 171.815 218.026 174.39 220.501 178.536C220.594 178.694 220.717 178.832 220.864 178.942C221.01 179.052 221.177 179.132 221.354 179.177C221.532 179.223 221.717 179.233 221.898 179.207C222.079 179.181 222.254 179.119 222.411 179.025C222.569 178.931 222.706 178.808 222.816 178.661C222.925 178.514 223.004 178.346 223.049 178.169C223.093 177.991 223.102 177.806 223.075 177.625C223.048 177.444 222.985 177.27 222.891 177.113C220.036 172.32 214.643 169.324 207.269 168.425C204.085 163.885 195.494 162.608 192.405 162.842C187.696 159.447 181.95 158.284 175.315 159.384C162.012 161.593 147.364 172.927 140.885 182.61C140.745 182.819 140.664 183.063 140.651 183.315C140.64 183.567 140.695 183.818 140.815 184.04C140.935 184.263 141.111 184.449 141.328 184.578C141.544 184.707 141.792 184.775 142.044 184.775L142.037 184.787Z" fill="#002036"/>
<path d="M172.7 208.194C173.065 208.194 173.416 208.051 173.676 207.793C176.257 205.245 179.591 203.728 183.12 202.118C185.191 201.173 187.334 200.194 189.33 198.985C193.017 196.751 196.148 193.767 199.174 190.874L200.231 189.868C201.079 189.065 201.89 188.23 202.676 187.422C204.884 185.152 206.968 183.02 209.665 181.659C213.322 179.826 217.544 177.972 221.252 179.161C221.427 179.22 221.612 179.243 221.796 179.23C221.98 179.217 222.159 179.167 222.323 179.084C222.488 179.001 222.634 178.885 222.754 178.745C222.873 178.605 222.964 178.442 223.02 178.266C223.076 178.091 223.096 177.906 223.08 177.722C223.064 177.538 223.012 177.36 222.926 177.197C222.84 177.033 222.723 176.889 222.581 176.771C222.439 176.654 222.275 176.566 222.098 176.512C217.6 175.078 212.861 176.941 208.409 179.173C205.294 180.732 202.945 183.147 200.673 185.483C199.907 186.271 199.114 187.087 198.307 187.851L197.264 188.869C194.345 191.651 191.327 194.536 187.897 196.611C186.043 197.736 183.974 198.679 181.974 199.592C178.382 201.233 174.666 202.932 171.733 205.817C171.538 206.01 171.405 206.257 171.35 206.525C171.295 206.794 171.32 207.074 171.424 207.327C171.528 207.581 171.703 207.8 171.931 207.953C172.158 208.108 172.424 208.192 172.7 208.194ZM191.079 174.842C191.323 174.841 191.563 174.776 191.774 174.654C196.815 171.718 202.333 170.36 206.177 171.111C206.539 171.181 206.914 171.105 207.22 170.898C207.526 170.692 207.737 170.373 207.807 170.011C207.878 169.649 207.802 169.274 207.595 168.968C207.389 168.662 207.07 168.451 206.708 168.381C202.233 167.507 195.974 168.99 190.375 172.251C190.111 172.405 189.906 172.641 189.79 172.923C189.674 173.205 189.654 173.517 189.733 173.812C189.812 174.106 189.986 174.366 190.227 174.552C190.469 174.739 190.765 174.84 191.07 174.842H191.079ZM180.186 168.921C180.417 168.92 180.646 168.861 180.85 168.749C184.602 166.698 188.801 165.616 192.669 165.704C192.851 165.708 193.033 165.676 193.203 165.61C193.374 165.544 193.529 165.445 193.661 165.319C193.928 165.064 194.082 164.714 194.091 164.345C194.099 163.976 193.96 163.619 193.706 163.353C193.451 163.086 193.1 162.931 192.731 162.923C189.661 162.856 184.868 163.387 179.521 166.309C179.251 166.457 179.036 166.691 178.912 166.975C178.789 167.259 178.763 167.576 178.841 167.876C178.916 168.175 179.091 168.441 179.336 168.63C179.582 168.82 179.882 168.922 180.191 168.921H180.186ZM230.436 258.067C230.794 258.067 231.138 257.931 231.397 257.685C231.656 257.436 231.81 257.099 231.827 256.743C232.23 248.924 235.599 241.553 241.247 236.131C241.385 236.006 241.496 235.855 241.574 235.687C241.653 235.52 241.697 235.338 241.704 235.152C241.711 234.966 241.68 234.782 241.615 234.607C241.549 234.434 241.449 234.276 241.321 234.142C241.193 234.007 241.04 233.899 240.87 233.825C240.7 233.752 240.517 233.711 240.331 233.709C240.145 233.708 239.961 233.743 239.79 233.812C239.618 233.882 239.462 233.985 239.331 234.118C233.166 240.033 229.489 248.078 229.048 256.61C229.039 256.792 229.067 256.974 229.128 257.147C229.19 257.318 229.285 257.477 229.408 257.613C229.531 257.747 229.679 257.858 229.845 257.935C230.01 258.012 230.189 258.056 230.371 258.065L230.436 258.067ZM162.717 319.304C163.066 319.304 163.403 319.174 163.661 318.938C163.918 318.701 164.078 318.375 164.106 318.027C164.356 314.991 164.106 310.149 163.861 305.471C163.629 300.884 163.374 296.139 163.609 293.29C163.907 289.669 164.216 285.923 163.826 282.179C163.64 280.387 163.296 278.618 162.961 276.911C162.702 275.582 162.433 274.21 162.249 272.865C161.443 266.932 161.916 262.916 162.632 256.84C162.654 256.658 162.639 256.474 162.59 256.299C162.54 256.122 162.457 255.959 162.343 255.815C162.231 255.672 162.091 255.552 161.931 255.462C161.771 255.374 161.596 255.317 161.414 255.294C161.234 255.274 161.05 255.289 160.873 255.337C160.698 255.386 160.534 255.471 160.391 255.583C160.247 255.697 160.128 255.837 160.038 255.997C159.949 256.156 159.892 256.332 159.87 256.513C159.156 262.577 158.639 266.958 159.495 273.24C159.69 274.662 159.958 276.077 160.231 277.444C160.568 279.168 160.888 280.797 161.059 282.466C161.423 285.941 161.123 289.566 160.827 293.06C160.577 296.096 160.827 300.941 161.074 305.617C161.305 310.206 161.561 314.949 161.326 317.797C161.311 317.98 161.331 318.164 161.386 318.337C161.443 318.511 161.532 318.673 161.649 318.813C161.769 318.951 161.913 319.067 162.076 319.15C162.238 319.234 162.415 319.284 162.597 319.299L162.717 319.304ZM167.953 263.556C168.027 263.556 168.099 263.551 168.17 263.539C170.205 263.221 172.272 263.159 174.322 263.352C174.691 263.385 175.058 263.273 175.343 263.035C175.628 262.798 175.806 262.459 175.841 262.09C175.874 261.722 175.76 261.354 175.525 261.068C175.288 260.783 174.947 260.605 174.579 260.572C172.299 260.356 170.003 260.428 167.742 260.781C167.399 260.838 167.09 261.021 166.875 261.295C166.66 261.569 166.555 261.913 166.582 262.259C166.608 262.607 166.765 262.93 167.019 263.168C167.272 263.407 167.606 263.539 167.953 263.543V263.556ZM169.582 280.25C169.71 280.25 169.839 280.234 169.963 280.197C171.93 279.645 173.972 279.409 176.012 279.501C176.382 279.518 176.741 279.386 177.013 279.137C177.286 278.887 177.448 278.539 177.462 278.171C177.479 277.801 177.346 277.443 177.098 277.17C176.848 276.898 176.5 276.736 176.132 276.721C173.795 276.622 171.457 276.894 169.206 277.533C168.884 277.625 168.606 277.829 168.424 278.109C168.24 278.39 168.165 278.727 168.211 279.058C168.257 279.391 168.421 279.695 168.673 279.915C168.925 280.136 169.247 280.258 169.582 280.26V280.25ZM169.999 296.069C170.112 296.069 170.224 296.056 170.334 296.028C172.023 295.609 173.775 295.497 175.506 295.695C175.689 295.719 175.874 295.708 176.053 295.659C176.231 295.611 176.397 295.526 176.542 295.414C176.688 295.3 176.809 295.158 176.899 294.998C176.99 294.836 177.047 294.659 177.069 294.475C177.089 294.293 177.074 294.107 177.023 293.931C176.971 293.752 176.885 293.589 176.769 293.445C176.653 293.301 176.509 293.182 176.347 293.094C176.185 293.007 176.007 292.952 175.823 292.933C173.764 292.696 171.679 292.83 169.668 293.327C169.337 293.408 169.048 293.607 168.855 293.887C168.66 294.166 168.575 294.509 168.618 294.845C168.658 295.184 168.82 295.495 169.076 295.721C169.331 295.946 169.659 296.071 169.999 296.069ZM74.6248 179.136C74.875 179.134 75.1179 179.066 75.3314 178.937C75.5448 178.809 75.7196 178.626 75.8392 178.407C75.957 178.188 76.014 177.941 76.0048 177.692C75.9956 177.443 75.9183 177.202 75.784 176.992C73.2577 173.087 69.8905 169.794 65.9308 167.354C65.7744 167.252 65.5996 167.183 65.4174 167.15C65.2353 167.117 65.0476 167.121 64.8654 167.161C64.6833 167.202 64.5122 167.278 64.3613 167.386C64.2104 167.494 64.0816 167.632 63.9841 167.79C63.8866 167.948 63.8221 168.125 63.7945 168.308C63.767 168.492 63.7762 168.68 63.8222 168.86C63.8681 169.04 63.9491 169.209 64.0614 169.357C64.1736 169.506 64.3134 169.63 64.4754 169.723C68.0818 171.945 71.1454 174.943 73.4472 178.499C73.5742 178.695 73.749 178.857 73.955 178.968C74.1611 179.08 74.3911 179.137 74.6248 179.136ZM193.978 57.0672C193.978 57.0672 194.539 51.0417 197.382 51.0417C204.395 51.0417 202.11 78.6379 196.143 86.1326C196.143 86.1326 199.851 85.3051 201.644 65.5375C202.108 60.3023 201.313 57.0648 201.313 57.0648L193.978 57.0672Z" fill="#002036"/>
<path d="M196.143 87.5252C196.244 87.5248 196.345 87.514 196.444 87.4928C197.603 87.2334 200.152 85.3214 201.981 74.2093C202.494 71.4982 202.833 68.7574 202.998 66.0033C202.998 65.8919 203.019 65.7714 203.028 65.6649C203.517 60.2582 202.697 56.8724 202.662 56.7311C202.662 56.7103 202.662 56.6871 202.643 56.6662C202.44 55.2992 202.051 53.9665 201.485 52.7058C200.268 50.182 198.581 49.6536 197.38 49.6536C193.385 49.6536 192.662 56.1911 192.593 56.9374C192.575 57.1306 192.597 57.3254 192.659 57.5094C192.72 57.6934 192.82 57.8624 192.951 58.0055C193.082 58.1488 193.242 58.2629 193.419 58.3408C193.597 58.4186 193.789 58.4585 193.983 58.4576H200.115C200.354 60.7797 200.401 63.1172 200.257 65.447C199.937 68.9579 199.561 71.8408 199.156 74.2093C198.229 78.8974 196.797 83.0827 195.054 85.2681C194.891 85.4728 194.788 85.7196 194.759 85.9798C194.73 86.2401 194.775 86.5032 194.889 86.7391C195.003 86.975 195.181 87.1739 195.403 87.313C195.625 87.452 195.881 87.5256 196.143 87.5252ZM199.619 55.6766H195.617C196.002 53.9641 196.711 52.4323 197.392 52.4323C197.624 52.4323 198.277 52.4323 198.991 53.9108C199.252 54.4786 199.46 55.07 199.61 55.6766H199.619ZM147.312 76.8626C147.52 76.8627 147.726 76.816 147.914 76.7259C148.921 76.2281 149.752 75.4386 150.302 74.4603C150.851 73.4819 151.094 72.3605 150.994 71.2428C150.978 71.0596 150.926 70.8813 150.841 70.7183C150.755 70.5554 150.639 70.411 150.497 70.2936C150.356 70.1762 150.192 70.0881 150.015 70.0343C149.839 69.9806 149.655 69.9624 149.471 69.9806C149.289 69.9988 149.11 70.0533 148.948 70.1407C148.786 70.2281 148.645 70.3468 148.529 70.4897C148.413 70.6329 148.326 70.7974 148.275 70.974C148.223 71.1507 148.207 71.3358 148.227 71.5187C148.265 72.0675 148.142 72.6158 147.872 73.0955C147.603 73.5752 147.198 73.9655 146.709 74.2183C146.425 74.3546 146.195 74.5837 146.059 74.8676C145.921 75.1516 145.885 75.4736 145.954 75.781C146.024 76.0885 146.197 76.363 146.444 76.5595C146.69 76.756 146.998 76.8629 147.312 76.8626ZM212.882 86.5518C213.154 86.552 213.421 86.4721 213.648 86.3222C213.875 86.1722 214.054 85.9588 214.161 85.7084C217.748 77.3077 219.206 64.8746 217.551 56.7867C217.515 56.6077 217.443 56.4378 217.341 56.2864C217.238 56.1351 217.107 56.0056 216.955 55.905C216.802 55.8043 216.632 55.7348 216.452 55.7002C216.273 55.6656 216.088 55.6667 215.91 55.7033C215.731 55.7399 215.561 55.8115 215.409 55.9138C215.258 56.0163 215.128 56.1475 215.028 56.2998C214.927 56.4524 214.858 56.6231 214.823 56.8025C214.788 56.9819 214.79 57.1663 214.826 57.3451C216.384 64.9487 214.998 76.6703 211.605 84.6145C211.515 84.8259 211.478 85.0565 211.498 85.2853C211.519 85.5144 211.596 85.7347 211.722 85.9266C211.849 86.1185 212.021 86.2762 212.223 86.3853C212.426 86.4944 212.652 86.5516 212.882 86.5518ZM176.797 204.058C176.797 204.058 191.293 213.019 172.701 210.189C154.107 207.361 119.133 177.56 143.167 181.817C143.167 181.817 139.284 188.26 138.444 189.849C147.793 198.304 155.361 205.348 169.367 209.436C169.367 209.436 173.461 206.11 176.66 204.148L176.797 204.058Z" fill="#002036"/>
<path d="M178.561 212.126C181.442 212.126 182.936 211.482 183.428 210.148C184.122 208.259 182.145 206.352 180.601 205.079C179.621 204.284 178.592 203.546 177.525 202.873C177.297 202.733 177.034 202.661 176.767 202.667C176.5 202.672 176.239 202.755 176.018 202.904L175.908 202.978C173.357 204.547 170.314 206.902 169.063 207.896C163.78 206.273 157.287 202.967 150.919 198.582C150.376 198.208 149.84 197.833 149.316 197.456C146.28 195.057 143.349 192.412 140.197 189.564C141.516 187.248 144.324 182.594 144.368 182.538C144.484 182.344 144.552 182.126 144.565 181.901C144.578 181.675 144.536 181.45 144.442 181.245C144.348 181.04 144.206 180.86 144.028 180.722C143.849 180.584 143.641 180.491 143.419 180.452C138.626 179.602 135.759 179.975 134.395 181.625C133.792 182.352 133.236 183.662 134.038 185.757C134.587 187.196 135.739 188.878 137.339 190.683C137.389 190.749 137.444 190.812 137.505 190.867C140.072 193.724 143.739 196.878 147.886 199.85C153.68 204.374 160.084 208.178 168.989 210.776L169.089 210.801C170.213 211.123 171.355 211.376 172.509 211.56C174.509 211.894 176.531 212.084 178.561 212.126ZM180.692 209.129C180.114 209.328 178.285 209.624 172.918 208.807L172.516 208.739C173.76 207.795 175.341 206.639 176.793 205.708C178.625 206.945 180.268 208.374 180.692 209.129ZM140.898 182.892C140.107 184.215 139.043 186.017 138.223 187.413C137.569 186.609 137.032 185.717 136.625 184.762C136.508 184.456 136.265 183.708 136.526 183.391C136.666 183.226 137.461 182.526 140.898 182.892ZM167.523 219.427C168.163 219.427 168.79 219.236 169.324 218.881C169.858 218.524 170.274 218.016 170.52 217.424C170.765 216.831 170.829 216.18 170.704 215.55C170.579 214.919 170.27 214.342 169.817 213.889C169.363 213.434 168.785 213.125 168.156 213C167.526 212.875 166.873 212.94 166.281 213.184C165.688 213.431 165.18 213.847 164.825 214.38C164.468 214.914 164.277 215.541 164.277 216.183C164.277 217.043 164.619 217.869 165.228 218.476C165.837 219.085 166.662 219.427 167.523 219.427ZM177.932 88.4266H178.029C178.52 88.4098 178.997 88.2477 179.394 87.9607C179.794 87.6736 180.099 87.2747 180.272 86.8145C180.443 86.3542 180.476 85.853 180.362 85.3746C180.25 84.8962 179.998 84.4619 179.639 84.1267C179.278 83.7916 178.828 83.5704 178.344 83.4917C177.858 83.4127 177.361 83.4797 176.914 83.6836C176.467 83.8876 176.09 84.2198 175.832 84.638C175.573 85.0561 175.444 85.5414 175.462 86.0327C175.484 86.6754 175.755 87.2843 176.219 87.7309C176.68 88.1776 177.299 88.4269 177.941 88.4266H177.932ZM178.232 85.933C178.233 86.0119 178.206 86.0887 178.151 86.1464C178.097 86.2042 178.024 86.2382 177.944 86.2412C177.865 86.2438 177.788 86.2156 177.731 86.1624C177.702 86.1358 177.68 86.1036 177.663 86.0677C177.646 86.032 177.637 85.9932 177.635 85.954L178.232 85.933ZM177.932 85.6458C178.009 85.6461 178.081 85.675 178.136 85.7267C178.165 85.7532 178.187 85.7851 178.204 85.8204C178.22 85.8559 178.23 85.8942 178.232 85.933L177.635 85.954C177.635 85.915 177.641 85.8761 177.656 85.8397C177.668 85.8033 177.689 85.7698 177.716 85.7414C177.742 85.7129 177.775 85.6901 177.81 85.6741C177.845 85.6581 177.884 85.6493 177.922 85.648L177.932 85.6458ZM165.239 93.159H165.329C165.821 93.1417 166.295 92.9791 166.695 92.6919C167.094 92.4046 167.398 92.0057 167.571 91.5454C167.742 91.085 167.773 90.584 167.661 90.1056C167.548 89.6273 167.296 89.1933 166.936 88.8584C166.577 88.5233 166.126 88.3027 165.64 88.224C165.155 88.1452 164.658 88.2122 164.211 88.4163C163.764 88.6205 163.388 88.9526 163.129 89.3707C162.871 89.7887 162.742 90.2739 162.761 90.765C162.785 91.4072 163.055 92.0151 163.517 92.4613C163.981 92.9075 164.597 93.1576 165.239 93.159ZM165.539 90.6631C165.541 90.7021 165.534 90.7409 165.521 90.7775C165.508 90.814 165.486 90.8476 165.46 90.8762C165.434 90.9049 165.401 90.928 165.366 90.9442C165.331 90.9606 165.293 90.9698 165.254 90.9713C165.215 90.9728 165.175 90.9667 165.14 90.9531C165.103 90.9396 165.07 90.919 165.041 90.8925C165.011 90.8662 164.989 90.8344 164.972 90.7989C164.956 90.7635 164.947 90.7253 164.945 90.6863L165.539 90.6631ZM165.241 90.3781C165.318 90.3768 165.394 90.406 165.449 90.4594C165.504 90.5129 165.537 90.586 165.539 90.6631L164.945 90.6863C164.945 90.6473 164.95 90.6084 164.965 90.572C164.978 90.5356 164.998 90.5021 165.026 90.4737C165.052 90.4454 165.085 90.4224 165.12 90.4064C165.155 90.3904 165.193 90.3816 165.232 90.3803L165.241 90.3781Z" fill="#002036"/>
<g opacity="0.2">
<path d="M145.257 100.184C144.442 98.6251 146.046 96.1757 148.839 94.7136C151.634 93.2517 154.56 93.3305 155.377 94.8897C156.192 96.4491 154.589 98.8983 151.794 100.36C149 101.822 146.074 101.744 145.257 100.184Z" fill="#2F5DFF"/>
<path d="M147.931 102.806C149.508 102.767 151.051 102.354 152.437 101.601C156.023 99.7241 157.815 96.5656 156.608 94.2527C155.977 93.0499 154.621 92.3315 152.886 92.2852C151.421 92.2482 149.752 92.6745 148.194 93.488C144.606 95.3652 142.814 98.5261 144.021 100.837C144.652 102.039 146.008 102.758 147.743 102.804L147.931 102.806ZM152.696 95.0638H152.809C153.476 95.0823 154.001 95.2678 154.143 95.5273C154.433 96.0881 153.521 97.8795 151.145 99.1239C150.124 99.6855 148.983 99.9894 147.817 100.009C147.151 99.9929 146.626 99.8053 146.484 99.5342C146.19 98.9734 147.106 97.182 149.482 95.9398C150.47 95.4027 151.57 95.1028 152.696 95.0638Z" fill="#2F5DFF"/>
</g>
<path d="M272.162 207.408C272.447 207.408 272.725 207.322 272.959 207.158C273.192 206.996 273.37 206.764 273.468 206.498C273.566 206.229 273.58 205.938 273.507 205.662C273.434 205.388 273.278 205.142 273.061 204.958L254.728 189.43C254.588 189.312 254.427 189.222 254.253 189.167C254.079 189.111 253.896 189.089 253.714 189.106C253.532 189.121 253.354 189.17 253.192 189.255C253.03 189.338 252.885 189.454 252.767 189.592C252.649 189.732 252.56 189.893 252.504 190.066C252.448 190.241 252.427 190.423 252.442 190.606C252.457 190.788 252.508 190.966 252.592 191.128C252.675 191.29 252.79 191.435 252.929 191.553L271.263 207.079C271.514 207.293 271.833 207.408 272.162 207.408ZM259.835 206.735C260.118 206.735 260.394 206.65 260.627 206.49C260.86 206.33 261.039 206.104 261.139 205.839C261.24 205.576 261.258 205.287 261.191 205.013C261.123 204.739 260.974 204.49 260.762 204.303L254.559 198.805C254.422 198.681 254.262 198.589 254.089 198.529C253.916 198.468 253.733 198.444 253.55 198.453C253.367 198.464 253.188 198.512 253.023 198.591C252.858 198.672 252.711 198.783 252.589 198.921C252.467 199.057 252.374 199.217 252.314 199.39C252.253 199.563 252.228 199.747 252.239 199.929C252.25 200.111 252.296 200.291 252.376 200.455C252.456 200.621 252.568 200.768 252.705 200.889L258.908 206.384C259.164 206.612 259.494 206.735 259.835 206.735ZM227.873 211.58C228.15 211.58 228.421 211.497 228.651 211.342C228.88 211.186 229.058 210.967 229.162 210.709C229.266 210.452 229.29 210.17 229.232 209.9C229.174 209.627 229.037 209.381 228.837 209.188L216.478 197.277C216.213 197.022 215.857 196.88 215.488 196.887C215.119 196.895 214.768 197.047 214.512 197.312C214.256 197.579 214.116 197.934 214.123 198.304C214.129 198.672 214.282 199.024 214.548 199.279L226.909 211.191C227.168 211.44 227.514 211.58 227.873 211.58ZM216.75 212.126C217.028 212.128 217.301 212.045 217.532 211.889C217.763 211.732 217.942 211.512 218.045 211.252C218.148 210.993 218.172 210.709 218.112 210.437C218.052 210.165 217.912 209.918 217.709 209.727L213.589 205.786C213.458 205.655 213.302 205.55 213.13 205.48C212.958 205.41 212.774 205.375 212.588 205.377C212.403 205.379 212.219 205.418 212.049 205.491C211.879 205.565 211.725 205.673 211.597 205.808C211.468 205.942 211.369 206.1 211.303 206.273C211.237 206.448 211.206 206.632 211.213 206.818C211.22 207.004 211.264 207.186 211.342 207.353C211.421 207.523 211.532 207.673 211.67 207.799L215.79 211.738C216.048 211.986 216.392 212.126 216.75 212.126Z" fill="white"/>
<path d="M228.462 271.945C228.38 271.24 228.055 270.587 227.543 270.095C227.03 269.604 226.363 269.308 225.655 269.256C218.219 268.727 193.056 267.096 191.839 269.203C190.409 271.674 192.648 294.676 194.089 305.228C200.425 307.16 223.118 306.899 224.464 304.22C225.641 301.887 229.423 279.98 228.462 271.945Z" fill="#002036"/>
<path d="M208.43 307.874C209.371 307.874 210.284 307.874 211.18 307.841C224.357 307.527 225.338 305.578 225.706 304.846C227.036 302.205 230.839 280.114 229.843 271.781C229.721 270.754 229.246 269.805 228.5 269.091C227.754 268.377 226.782 267.945 225.753 267.869C221.665 267.578 213.723 267.059 206.453 266.852C202.295 266.734 198.951 266.736 196.518 266.852C192.268 267.067 191.144 267.619 190.634 268.496C190.282 269.109 189.454 270.535 190.5 284.284C191.086 291.986 192.034 300.444 192.713 305.407C192.749 305.67 192.859 305.917 193.031 306.119C193.203 306.321 193.43 306.47 193.684 306.55C196.743 307.49 202.882 307.874 208.43 307.874ZM223.261 303.499C222.503 304.051 218.462 304.934 210.423 305.078C204.235 305.188 198.393 304.807 195.338 304.117C193.591 290.979 192.205 272.96 192.979 270.081C194.972 269.334 205.616 269.223 225.551 270.642C225.936 270.671 226.298 270.835 226.577 271.102C226.855 271.371 227.031 271.726 227.076 272.11C228.031 280.054 224.265 301.107 223.266 303.499H223.261Z" fill="#002036"/>
<path d="M209.966 285.022C215.296 285.022 226.615 276.055 227.887 275.034C228.174 274.804 228.359 274.467 228.399 274.101C228.439 273.735 228.332 273.367 228.101 273.08C227.871 272.791 227.535 272.607 227.168 272.567C226.802 272.526 226.434 272.635 226.146 272.865C221.63 276.489 213.243 282.241 209.966 282.241C206.722 282.241 198.409 275.661 193.925 271.514C193.791 271.389 193.634 271.293 193.462 271.231C193.291 271.166 193.109 271.139 192.926 271.144C192.744 271.152 192.565 271.196 192.399 271.271C192.233 271.348 192.084 271.457 191.96 271.59C191.836 271.724 191.739 271.882 191.676 272.053C191.613 272.224 191.584 272.406 191.591 272.589C191.598 272.771 191.641 272.951 191.717 273.117C191.794 273.282 191.902 273.431 192.036 273.555C193.304 274.729 204.585 285.022 209.966 285.022Z" fill="white"/>
<path d="M209.999 278.386C210.429 278.386 210.85 278.259 211.208 278.02C211.566 277.781 211.845 277.441 212.009 277.043C212.174 276.646 212.217 276.208 212.133 275.786C212.049 275.363 211.841 274.975 211.537 274.671C211.232 274.368 210.844 274.16 210.422 274.077C210 273.992 209.562 274.037 209.164 274.202C208.767 274.366 208.427 274.646 208.188 275.004C207.949 275.361 207.822 275.783 207.823 276.213C207.823 276.789 208.053 277.343 208.461 277.75C208.869 278.158 209.422 278.386 209.999 278.386Z" fill="white"/>
</svg>
