<svg width="25" height="24" viewBox="0 0 25 24" fill="none" xmlns="http://www.w3.org/2000/svg">
<path d="M20.213 7.28224L17.3589 4.54224C16.9864 4.20634 16.4982 4.0136 15.9873 4.00069C15.4764 3.98779 14.9784 4.15561 14.588 4.47224L5.21304 13.4722C4.87633 13.7982 4.66669 14.2254 4.61929 14.6822L4.17137 18.8522C4.15734 18.9987 4.17714 19.1463 4.22935 19.2846C4.28157 19.4229 4.36491 19.5484 4.47345 19.6522C4.57079 19.7449 4.68622 19.8182 4.81313 19.868C4.94005 19.9178 5.07595 19.943 5.21304 19.9422H5.30679L9.65054 19.5622C10.1264 19.5167 10.5714 19.3155 10.911 18.9922L20.286 9.99224C20.6498 9.62321 20.8465 9.13075 20.8328 8.62278C20.8191 8.1148 20.5963 7.63275 20.213 7.28224ZM16.6714 10.6222L13.8797 7.94224L15.911 5.94224L18.7547 8.67224L16.6714 10.6222Z" fill="white"/>
</svg>
