<svg width="21" height="20" viewBox="0 0 21 20" fill="none" xmlns="http://www.w3.org/2000/svg">
<path d="M17.092 12.925H13.317C13.096 12.925 12.884 13.0128 12.7277 13.1691C12.5715 13.3254 12.4837 13.5373 12.4837 13.7584C12.4837 13.9794 12.5715 14.1913 12.7277 14.3476C12.884 14.5039 13.096 14.5917 13.317 14.5917H15.317C14.3978 15.5523 13.2123 16.2161 11.913 16.4978C10.6136 16.7796 9.25967 16.6664 8.02514 16.1727C6.79061 15.6791 5.73188 14.8276 4.98498 13.7277C4.23809 12.6277 3.83714 11.3296 3.83366 10C3.83366 9.77901 3.74586 9.56705 3.58958 9.41077C3.4333 9.25449 3.22134 9.16669 3.00033 9.16669C2.77931 9.16669 2.56735 9.25449 2.41107 9.41077C2.25479 9.56705 2.16699 9.77901 2.16699 10C2.1714 11.6274 2.65218 13.2178 3.55 14.575C4.44781 15.9323 5.72338 16.997 7.21928 17.6377C8.71517 18.2784 10.3659 18.4671 11.9678 18.1806C13.5697 17.894 15.0527 17.1446 16.2337 16.025V17.5C16.2337 17.721 16.3215 17.933 16.4777 18.0893C16.634 18.2456 16.846 18.3334 17.067 18.3334C17.288 18.3334 17.5 18.2456 17.6562 18.0893C17.8125 17.933 17.9003 17.721 17.9003 17.5V13.75C17.8983 13.5347 17.813 13.3286 17.6623 13.1748C17.5116 13.021 17.3072 12.9315 17.092 12.925ZM10.5003 1.66669C8.36398 1.67278 6.31157 2.49912 4.76699 3.97502V2.50002C4.76699 2.27901 4.6792 2.06704 4.52291 1.91076C4.36663 1.75448 4.15467 1.66669 3.93366 1.66669C3.71265 1.66669 3.50068 1.75448 3.3444 1.91076C3.18812 2.06704 3.10033 2.27901 3.10033 2.50002V6.25002C3.10033 6.47103 3.18812 6.683 3.3444 6.83928C3.50068 6.99556 3.71265 7.08335 3.93366 7.08335H7.68366C7.90467 7.08335 8.11663 6.99556 8.27291 6.83928C8.42919 6.683 8.51699 6.47103 8.51699 6.25002C8.51699 6.02901 8.42919 5.81705 8.27291 5.66076C8.11663 5.50448 7.90467 5.41669 7.68366 5.41669H5.68366C6.60238 4.45658 7.78707 3.79294 9.08566 3.51094C10.3842 3.22895 11.7375 3.34147 12.9717 3.83407C14.2058 4.32667 15.2647 5.17686 16.0122 6.27552C16.7597 7.37418 17.1619 8.67118 17.167 10C17.167 10.221 17.2548 10.433 17.4111 10.5893C17.5674 10.7456 17.7793 10.8334 18.0003 10.8334C18.2213 10.8334 18.4333 10.7456 18.5896 10.5893C18.7459 10.433 18.8337 10.221 18.8337 10C18.8337 8.90567 18.6181 7.82204 18.1993 6.81099C17.7805 5.79994 17.1667 4.88129 16.3929 4.10746C15.6191 3.33364 14.7004 2.71981 13.6894 2.30102C12.6783 1.88224 11.5947 1.66669 10.5003 1.66669Z" fill="white"/>
</svg>
