<svg width="20" height="20" viewBox="0 0 20 20" fill="none" xmlns="http://www.w3.org/2000/svg">
<path fill-rule="evenodd" clip-rule="evenodd" d="M10.7509 2.0129C10.2548 1.91367 9.74392 1.91367 9.24779 2.0129C8.14537 2.23338 7.19537 2.92683 6.64939 3.9096L1.49446 13.1885C1.19707 13.7238 1.04102 14.326 1.04102 14.9384C1.04102 16.9284 2.65425 18.5416 4.64427 18.5416H15.3544C17.3444 18.5416 18.9577 16.9284 18.9577 14.9384C18.9577 14.326 18.8016 13.7238 18.5042 13.1885L13.3493 3.90961C12.8033 2.92683 11.8533 2.23338 10.7509 2.0129ZM9.99967 11.4583C9.6545 11.4583 9.37467 11.1785 9.37467 10.8333V7.5C9.37467 7.15482 9.6545 6.875 9.99967 6.875C10.3449 6.875 10.6247 7.15482 10.6247 7.5V10.8333C10.6247 11.1785 10.3449 11.4583 9.99967 11.4583ZM10.6247 13.75C10.6247 14.0952 10.3449 14.375 9.99967 14.375C9.6545 14.375 9.37467 14.0952 9.37467 13.75V13.3333C9.37467 12.9882 9.6545 12.7083 9.99967 12.7083C10.3449 12.7083 10.6247 12.9882 10.6247 13.3333V13.75Z" fill="#F6504F"/>
</svg>
