<svg width="25" height="24" viewBox="0 0 25 24" fill="none" xmlns="http://www.w3.org/2000/svg">
<path fill-rule="evenodd" clip-rule="evenodd" d="M5.09416 6.7025C4.76916 6.7025 4.49999 6.97167 4.49999 7.31417V7.63083C4.49907 7.79032 4.56083 7.9438 4.67196 8.0582C4.78309 8.1726 4.93471 8.23879 5.09416 8.2425H18.905C19.0646 8.239 19.2164 8.17291 19.3277 8.05849C19.439 7.94406 19.5009 7.79046 19.5 7.63083V7.31417C19.5 6.97167 19.23 6.7025 18.905 6.7025H16.475C15.9817 6.7025 15.5525 6.35167 15.4417 5.85667L15.3142 5.28833C15.1158 4.51417 14.4658 4 13.7208 4H10.2792C9.54249 4 8.88416 4.51417 8.69416 5.2475L8.55832 5.85583C8.5082 6.09367 8.37836 6.30725 8.19029 6.46122C8.00222 6.61519 7.76721 6.70032 7.52416 6.7025H5.09416ZM6.32832 18.2783C6.07499 15.9142 5.63083 10.2975 5.63083 10.2408C5.62313 10.1572 5.63245 10.0729 5.65823 9.99298C5.68401 9.91306 5.72571 9.83919 5.78083 9.77583C5.83654 9.71536 5.904 9.66688 5.97907 9.63336C6.05415 9.59983 6.13528 9.58196 6.21749 9.58083H17.775C17.9417 9.58083 18.1008 9.65333 18.2117 9.77583C18.3225 9.9046 18.3792 10.0712 18.37 10.2408L18.3258 10.78C18.2075 12.2492 17.8783 16.3417 17.665 18.2783C17.515 19.705 16.5783 20.6017 15.2225 20.6342C14.1758 20.6583 13.0975 20.6667 11.9958 20.6667C10.9575 20.6667 9.90416 20.6583 8.82499 20.6342C7.42166 20.61 6.48749 19.7292 6.32832 18.2783Z" fill="white"/>
</svg>
